<?xml version="1.0" encoding="utf-8"?>
<!-- Generator: Adobe Illustrator 16.0.0, SVG Export Plug-In . SVG Version: 6.00 Build 0)  -->
<!DOCTYPE svg PUBLIC "-//W3C//DTD SVG 1.1//EN" "http://www.w3.org/Graphics/SVG/1.1/DTD/svg11.dtd">
<svg version="1.1" id="Layer_1" xmlns="http://www.w3.org/2000/svg" xmlns:xlink="http://www.w3.org/1999/xlink" x="0px" y="0px"
	 width="700px" height="700px" viewBox="0 0 700 700" style="enable-background:new 0 0 700 700;" xml:space="preserve">
<g>
	<path style="fill:#D9E9F0;" d="M645.732,544.814H55.449c-3.736,0-6.766,3.029-6.766,6.766l0,0c0,3.736,3.029,6.765,6.766,6.765
		h590.283c3.738,0,6.767-3.028,6.767-6.765l0,0C652.499,547.844,649.471,544.814,645.732,544.814z"/>
	<g>
		<g>
			<g>
				<linearGradient id="SVGID_1_" gradientUnits="userSpaceOnUse" x1="546.7578" y1="477.8701" x2="575.3149" y2="527.3325">
					<stop  offset="0" style="stop-color:#00ADE5"/>
					<stop  offset="1" style="stop-color:#1E4394"/>
				</linearGradient>
				<path style="fill:url(#SVGID_1_);" d="M574.249,527.948h-14.564c0-7.808-5.139-15.501-8.982-22.059
					c-0.123-0.21-0.246-0.423-0.368-0.631c-3.313-5.722-7.615-11.031-8.89-17.687c-0.368-1.935-0.443-4.03,0.465-5.779
					c0.965-1.866,2.927-3.061,4.963-3.584C571.128,471.992,576.199,504.38,574.249,527.948z"/>
				<linearGradient id="SVGID_2_" gradientUnits="userSpaceOnUse" x1="549.2627" y1="486.7246" x2="571.7949" y2="525.7516">
					<stop  offset="0" style="stop-color:#00B3CE"/>
					<stop  offset="0.1589" style="stop-color:#00AFD3"/>
					<stop  offset="0.433" style="stop-color:#00ACDB"/>
					<stop  offset="0.7119" style="stop-color:#00AAE0"/>
					<stop  offset="1" style="stop-color:#00A9E3"/>
				</linearGradient>
				<path style="fill:url(#SVGID_2_);" d="M567.989,527.948h-0.625c-0.054-3.301-0.4-6.602-0.934-9.855
					c-0.646-3.935-1.616-7.805-2.885-11.574c-2.527-7.541-6.393-14.621-11.459-20.807c-0.415-0.527-0.048-0.81,0.39-0.341
					c5.54,5.86,9.77,13.025,12.327,20.727c1.285,3.849,2.203,7.821,2.715,11.841C567.94,521.262,568.138,524.61,567.989,527.948z"/>
			</g>
			<linearGradient id="SVGID_3_" gradientUnits="userSpaceOnUse" x1="604.4111" y1="494.5693" x2="621.5205" y2="524.2036">
				<stop  offset="0" style="stop-color:#00ADE5"/>
				<stop  offset="1" style="stop-color:#1E4394"/>
			</linearGradient>
			<path style="fill:url(#SVGID_3_);" d="M600.213,527.948h14.819c0-19,21.493-37.658,5.288-39.675
				c-5.766-0.72-9.88,2.235-12.812,6.827C600.213,506.496,600.213,527.948,600.213,527.948z"/>
			<linearGradient id="SVGID_4_" gradientUnits="userSpaceOnUse" x1="559.4287" y1="440.2822" x2="608.0776" y2="524.5446">
				<stop  offset="0" style="stop-color:#00ADE5"/>
				<stop  offset="1" style="stop-color:#1E4394"/>
			</linearGradient>
			<path style="fill:url(#SVGID_4_);" d="M583.991,527.948h18.189c2.965-27.364,2.154-95.966-37.471-89.229
				C534.309,443.887,583.215,483.407,583.991,527.948z"/>
			<g>
				<linearGradient id="SVGID_5_" gradientUnits="userSpaceOnUse" x1="565.6318" y1="457.624" x2="603.2607" y2="522.7992">
					<stop  offset="0" style="stop-color:#00B3CE"/>
					<stop  offset="0.1589" style="stop-color:#00AFD3"/>
					<stop  offset="0.433" style="stop-color:#00ACDB"/>
					<stop  offset="0.7119" style="stop-color:#00AAE0"/>
					<stop  offset="1" style="stop-color:#00A9E3"/>
				</linearGradient>
				<path style="fill:url(#SVGID_5_);" d="M574.048,453.832c2.396,2.688,4.381,5.716,6.13,8.859
					c1.748,3.134,3.222,6.429,4.461,9.807c1.256,3.369,2.333,6.811,3.217,10.31c0.89,3.489,1.652,7.013,2.259,10.577
					c1.256,7.102,2.016,14.301,2.494,21.516c0.275,4.35,0.454,8.698,0.494,13.048h1.239c0.163-4.373,0.154-8.755,0-13.136
					c-0.284-7.29-0.965-14.586-2.244-21.793c-0.623-3.604-1.434-7.184-2.396-10.715c-0.947-3.539-2.121-7.021-3.506-10.422
					c-0.664-1.708-1.458-3.368-2.244-5.028c-0.857-1.629-1.684-3.265-2.673-4.812c-1.919-3.126-4.089-6.121-6.681-8.721
					C573.819,452.496,573.311,452.957,574.048,453.832z"/>
			</g>
			<g>
				<linearGradient id="SVGID_6_" gradientUnits="userSpaceOnUse" x1="565.6689" y1="497.7705" x2="583.5181" y2="528.6861">
					<stop  offset="0" style="stop-color:#00ADE5"/>
					<stop  offset="1" style="stop-color:#1E4394"/>
				</linearGradient>
				<path style="fill:url(#SVGID_6_);" d="M569.697,527.948h15.097c0,0,3.98-31.815-13.106-31.794
					C556.136,496.165,566.521,515.825,569.697,527.948z"/>
				<g>
					<linearGradient id="SVGID_7_" gradientUnits="userSpaceOnUse" x1="570.458" y1="505.7012" x2="582.3096" y2="526.2287">
						<stop  offset="0" style="stop-color:#00B3CE"/>
						<stop  offset="0.1589" style="stop-color:#00AFD3"/>
						<stop  offset="0.433" style="stop-color:#00ACDB"/>
						<stop  offset="0.7119" style="stop-color:#00AAE0"/>
						<stop  offset="1" style="stop-color:#00A9E3"/>
					</linearGradient>
					<path style="fill:url(#SVGID_7_);" d="M574.196,504.011c2.245,7.156,3.197,14.652,3.728,22.116
						c0.031,0.604,0.063,1.218,0.096,1.821h1.311c-0.021-0.646-0.052-1.282-0.094-1.916c-0.551-7.55-1.812-15.119-4.585-22.201
						C574.419,503.28,574.006,503.449,574.196,504.011z"/>
				</g>
			</g>
			<g>
				<linearGradient id="SVGID_8_" gradientUnits="userSpaceOnUse" x1="605.8359" y1="502.4668" x2="617.1187" y2="522.009">
					<stop  offset="0" style="stop-color:#00B3CE"/>
					<stop  offset="0.1589" style="stop-color:#00AFD3"/>
					<stop  offset="0.433" style="stop-color:#00ACDB"/>
					<stop  offset="0.7119" style="stop-color:#00AAE0"/>
					<stop  offset="1" style="stop-color:#00A9E3"/>
				</linearGradient>
				<path style="fill:url(#SVGID_8_);" d="M605.881,527.948h0.948c0.348-2.884,0.785-5.768,1.327-8.617
					c0.826-3.984,1.847-7.92,3.199-11.751c0.356-0.955,0.761-1.887,1.134-2.826c0.195-0.47,0.365-0.947,0.584-1.409l0.68-1.36
					l0.672-1.369c0.228-0.453,0.446-0.915,0.729-1.336l1.595-2.6c0.332-0.534,0.065-0.753-0.308-0.211l-1.731,2.544
					c-0.31,0.421-0.544,0.874-0.786,1.327l-0.747,1.353l-0.735,1.36c-0.235,0.454-0.421,0.932-0.64,1.401
					c-0.404,0.947-0.843,1.879-1.223,2.834c-1.474,3.847-2.576,7.823-3.41,11.856C606.611,522.06,606.182,524.999,605.881,527.948z"
					/>
			</g>
		</g>
		<g>
			<g>
				<linearGradient id="SVGID_9_" gradientUnits="userSpaceOnUse" x1="77.9932" y1="476.667" x2="109.7607" y2="531.6901">
					<stop  offset="0" style="stop-color:#00ADE5"/>
					<stop  offset="1" style="stop-color:#1E4394"/>
				</linearGradient>
				<path style="fill:url(#SVGID_9_);" d="M108.573,532.376H92.375c0-8.684-5.718-17.243-9.995-24.539
					c-0.137-0.231-0.273-0.469-0.41-0.699c-3.684-6.365-8.47-12.273-9.888-19.675c-0.41-2.153-0.492-4.485,0.516-6.431
					c1.074-2.075,3.257-3.404,5.522-3.986C105.103,470.131,110.744,506.158,108.573,532.376z"/>
				<linearGradient id="SVGID_10_" gradientUnits="userSpaceOnUse" x1="80.7783" y1="486.5186" x2="105.8433" y2="529.9323">
					<stop  offset="0" style="stop-color:#00B3CE"/>
					<stop  offset="0.1589" style="stop-color:#00AFD3"/>
					<stop  offset="0.433" style="stop-color:#00ACDB"/>
					<stop  offset="0.7119" style="stop-color:#00AAE0"/>
					<stop  offset="1" style="stop-color:#00A9E3"/>
				</linearGradient>
				<path style="fill:url(#SVGID_10_);" d="M101.609,532.376h-0.694c-0.06-3.671-0.444-7.344-1.038-10.961
					c-0.718-4.379-1.797-8.684-3.209-12.878c-2.812-8.387-7.112-16.264-12.747-23.145c-0.463-0.588-0.053-0.902,0.433-0.38
					c6.163,6.519,10.867,14.49,13.714,23.056c1.43,4.283,2.45,8.702,3.02,13.175C101.556,524.938,101.776,528.663,101.609,532.376z"
					/>
			</g>
			<linearGradient id="SVGID_11_" gradientUnits="userSpaceOnUse" x1="142.1274" y1="495.2451" x2="161.1602" y2="528.2108">
				<stop  offset="0" style="stop-color:#00ADE5"/>
				<stop  offset="1" style="stop-color:#1E4394"/>
			</linearGradient>
			<path style="fill:url(#SVGID_11_);" d="M137.457,532.376h16.486c0-21.134,23.909-41.891,5.883-44.134
				c-6.415-0.802-10.991,2.486-14.252,7.594C137.457,508.512,137.457,532.376,137.457,532.376z"/>
			<linearGradient id="SVGID_12_" gradientUnits="userSpaceOnUse" x1="92.0889" y1="434.8535" x2="146.207" y2="528.5889">
				<stop  offset="0" style="stop-color:#00ADE5"/>
				<stop  offset="1" style="stop-color:#1E4394"/>
			</linearGradient>
			<path style="fill:url(#SVGID_12_);" d="M119.413,532.376h20.234c3.297-30.44,2.396-106.754-41.684-99.26
				C64.144,438.865,118.548,482.827,119.413,532.376z"/>
			<g>
				<linearGradient id="SVGID_13_" gradientUnits="userSpaceOnUse" x1="98.9893" y1="454.1465" x2="140.8481" y2="526.6482">
					<stop  offset="0" style="stop-color:#00B3CE"/>
					<stop  offset="0.1589" style="stop-color:#00AFD3"/>
					<stop  offset="0.433" style="stop-color:#00ACDB"/>
					<stop  offset="0.7119" style="stop-color:#00AAE0"/>
					<stop  offset="1" style="stop-color:#00A9E3"/>
				</linearGradient>
				<path style="fill:url(#SVGID_13_);" d="M108.351,449.928c2.666,2.99,4.873,6.36,6.819,9.855
					c1.946,3.486,3.585,7.153,4.964,10.909c1.396,3.749,2.594,7.577,3.576,11.469c0.991,3.883,1.838,7.802,2.514,11.766
					c1.396,7.9,2.243,15.909,2.775,23.936c0.306,4.839,0.504,9.677,0.549,14.514h1.378c0.181-4.865,0.171-9.738,0-14.612
					c-0.315-8.107-1.072-16.225-2.496-24.242c-0.693-4.009-1.594-7.99-2.666-11.919c-1.054-3.937-2.36-7.811-3.901-11.595
					c-0.739-1.9-1.622-3.747-2.496-5.595c-0.955-1.811-1.874-3.63-2.973-5.352c-2.135-3.476-4.55-6.81-7.432-9.701
					C108.098,448.441,107.53,448.954,108.351,449.928z"/>
			</g>
			<g>
				<linearGradient id="SVGID_14_" gradientUnits="userSpaceOnUse" x1="99.0303" y1="498.8076" x2="118.8848" y2="533.1966">
					<stop  offset="0" style="stop-color:#00ADE5"/>
					<stop  offset="1" style="stop-color:#1E4394"/>
				</linearGradient>
				<path style="fill:url(#SVGID_14_);" d="M103.511,532.376h16.794c0,0,4.428-35.39-14.581-35.367
					C88.424,497.021,99.978,518.892,103.511,532.376z"/>
				<g>
					<linearGradient id="SVGID_15_" gradientUnits="userSpaceOnUse" x1="104.3574" y1="507.6279" x2="117.5415" y2="530.4634">
						<stop  offset="0" style="stop-color:#00B3CE"/>
						<stop  offset="0.1589" style="stop-color:#00AFD3"/>
						<stop  offset="0.433" style="stop-color:#00ACDB"/>
						<stop  offset="0.7119" style="stop-color:#00AAE0"/>
						<stop  offset="1" style="stop-color:#00A9E3"/>
					</linearGradient>
					<path style="fill:url(#SVGID_15_);" d="M108.516,505.748c2.497,7.961,3.557,16.3,4.146,24.603
						c0.035,0.671,0.071,1.354,0.106,2.025h1.46c-0.024-0.719-0.06-1.425-0.106-2.132c-0.612-8.397-2.014-16.817-5.1-24.696
						C108.764,504.936,108.305,505.123,108.516,505.748z"/>
				</g>
			</g>
			<g>
				<linearGradient id="SVGID_16_" gradientUnits="userSpaceOnUse" x1="143.7129" y1="504.0303" x2="156.2632" y2="525.768">
					<stop  offset="0" style="stop-color:#00B3CE"/>
					<stop  offset="0.1589" style="stop-color:#00AFD3"/>
					<stop  offset="0.433" style="stop-color:#00ACDB"/>
					<stop  offset="0.7119" style="stop-color:#00AAE0"/>
					<stop  offset="1" style="stop-color:#00A9E3"/>
				</linearGradient>
				<path style="fill:url(#SVGID_16_);" d="M143.764,532.376h1.054c0.387-3.208,0.874-6.415,1.478-9.585
					c0.919-4.433,2.054-8.812,3.559-13.072c0.396-1.063,0.847-2.099,1.261-3.144c0.217-0.523,0.406-1.055,0.649-1.568l0.756-1.514
					l0.748-1.521c0.252-0.505,0.496-1.019,0.811-1.486l1.775-2.892c0.369-0.596,0.072-0.838-0.343-0.234l-1.928,2.828
					c-0.343,0.468-0.604,0.973-0.874,1.478l-0.829,1.505l-0.819,1.514c-0.261,0.504-0.468,1.035-0.711,1.558
					c-0.451,1.054-0.938,2.091-1.36,3.153c-1.64,4.279-2.865,8.703-3.793,13.189C144.574,525.826,144.097,529.097,143.764,532.376z"
					/>
			</g>
		</g>
		<g>
			<g>
				<linearGradient id="SVGID_17_" gradientUnits="userSpaceOnUse" x1="88.3662" y1="380.4414" x2="158.4814" y2="501.8846">
					<stop  offset="0" style="stop-color:#00B3CE"/>
					<stop  offset="0.1589" style="stop-color:#00AFD3"/>
					<stop  offset="0.433" style="stop-color:#00ACDB"/>
					<stop  offset="0.7119" style="stop-color:#00AAE0"/>
					<stop  offset="1" style="stop-color:#00A9E3"/>
				</linearGradient>
				<path style="fill:url(#SVGID_17_);" d="M166.585,448.538c-7.178-3.81-17.203,11.655-17.203,11.655
					c3.45-10.54,15.065-37.62,4.963-44.324c-8.199-5.44-17.165,5.031-20.183,13.157c2.413-9.366,12.443-38.514,2.802-42.406
					c-8.422-3.402-14.586,10.43-15.754,18.437c-0.997-8.307-2.254-36.461-17.77-32.822c-14.94,3.861-6.394,29.755-2.462,39.201
					c-4.477-5.607-15.7-17.103-21.536-8.195c-9.458,14.438,26.16,37.912,26.16,37.912c0,0.002-21.342-6.925-21.179,6.156
					c0.23,18.506,21.735,27.963,37.548,28.962c-22.609-1.974-20.42,18.866-4.343,27.034c13.516,6.866,30.006,5.716,42.68-2.547
					C168.819,491.701,177.492,454.325,166.585,448.538z"/>
				<linearGradient id="SVGID_18_" gradientUnits="userSpaceOnUse" x1="91.7769" y1="388.2666" x2="170.8584" y2="525.2399">
					<stop  offset="0" style="stop-color:#00ADE5"/>
					<stop  offset="1" style="stop-color:#1E4394"/>
				</linearGradient>
				<path style="fill:url(#SVGID_18_);" d="M157.899,473.096c-0.91,2.847-1.964,5.654-3.104,8.382
					c-0.88,2.11-1.903,4.146-3.002,6.11c-7.013-9.087-13.378-18.671-19.039-28.656c1.792-2.556,3.521-5.198,5.038-7.915
					c1.668-2.991,3.239-6.167,4.637-9.343c1.398-3.176,2.649-6.435,3.755-9.717c1.106-3.28,2.104-6.587,2.833-9.942
					c-0.848,3.319-1.958,6.571-3.175,9.785c-1.219,3.214-2.578,6.392-4.08,9.469c-1.501,3.076-3.172,6.135-4.931,8.992
					c-1.51,2.453-3.206,4.829-4.956,7.104c-4.391-7.774-8.395-16.001-11.806-24.254c1.596-3.054,3.166-6.116,4.444-9.35
					c0.741-1.642,1.31-3.381,1.982-5.049c0.568-1.727,1.198-3.434,1.725-5.15c1.048-3.416,2.072-6.924,2.909-10.422
					c0.837-3.496,1.585-7.01,2.104-10.553c-0.639,3.514-1.503,6.981-2.454,10.422c-0.952,3.443-2.089,6.881-3.245,10.215
					c-0.581,1.672-1.265,3.332-1.886,5.009c-0.724,1.616-1.344,3.3-2.133,4.879c-1.243,2.824-2.72,5.483-4.229,8.113
					c-6.406-16.535-11.174-33.024-14.604-50.41c2.979,17.544,7.328,34.223,13.315,50.993c-2.82-0.729-5.641-1.654-8.413-2.912
					c-3.19-1.447-6.36-3.143-9.418-5.16c-3.052-2.014-6.076-4.266-8.968-6.769c-2.894-2.506-5.703-5.237-8.345-8.255
					c2.567,3.131,5.317,5.99,8.164,8.628c2.846,2.635,5.835,5.028,8.871,7.185c3.042,2.161,6.212,4.008,9.427,5.605
					c3.071,1.525,6.227,2.659,9.405,3.556c3.508,8.53,7.21,16.679,11.328,24.931c-2.679,0.634-5.503,0.979-8.343,0.896
					c-3.292-0.096-6.732-0.606-10.109-1.477c-3.383-0.871-6.804-2.089-10.164-3.6c-3.362-1.51-6.707-3.296-9.954-5.455
					c3.207,2.297,6.53,4.227,9.886,5.885c3.354,1.658,6.786,3.026,10.206,4.047c3.411,1.018,6.912,1.679,10.3,1.908
					c3.026,0.204,6.071-0.055,8.994-0.66c5.439,10.216,11.6,20.046,18.421,29.395c-2.475,0.673-5.011,1.22-7.62,1.544
					c-3.265,0.405-6.616,0.626-10.012,0.563c-3.39-0.062-6.858-0.309-10.34-0.805c-3.483-0.496-7.004-1.199-10.539-2.201
					c3.537,1.151,7.076,2.004,10.587,2.647c3.509,0.643,7.017,1.032,10.458,1.233c3.448,0.2,6.865,0.112,10.21-0.17
					c2.832-0.24,5.595-0.741,8.306-1.386c8.128,10.862,17.041,21.223,26.867,30.594c1.171-1.273,1.757-1.91,2.929-3.183
					c-9.923-8.972-18.973-18.941-27.265-29.426c1.12-2.233,2.145-4.526,2.998-6.886c1.029-2.845,1.964-5.747,2.755-8.671
					c0.79-2.921,1.525-5.866,2.17-8.808c0.646-2.94,1.241-5.887,1.72-8.834c-0.599,2.917-1.314,5.82-2.08,8.709
					S158.809,470.252,157.899,473.096z"/>
			</g>
		</g>
		<g>
			<g>
				<linearGradient id="SVGID_19_" gradientUnits="userSpaceOnUse" x1="591.6602" y1="432.7949" x2="633.7808" y2="505.7499">
					<stop  offset="0" style="stop-color:#00B3CE"/>
					<stop  offset="0.1589" style="stop-color:#00AFD3"/>
					<stop  offset="0.433" style="stop-color:#00ACDB"/>
					<stop  offset="0.7119" style="stop-color:#00AAE0"/>
					<stop  offset="1" style="stop-color:#00A9E3"/>
				</linearGradient>
				<path style="fill:url(#SVGID_19_);" d="M588.338,483.312c3.598-3.91,13.14,3.445,13.14,3.445
					c-4.418-5.747-17.466-19.919-12.694-26.248c3.872-5.137,11.676-0.629,15.303,3.725c-3.522-5.25-16.043-21.04-10.946-25.535
					c4.455-3.928,11.262,3.259,13.722,7.941c-1.191-5.338-6.535-22.969,3.821-24.099c10.051-0.866,10.409,16.955,10.039,23.635
					c1.543-4.431,5.963-13.957,11.496-9.733c8.97,6.845-7.887,29.06-7.887,29.06c0.001,0.001,11.652-8.909,14.396-0.81
					c3.882,11.461-7.321,21.966-16.854,26.02c13.51-6.133,16.689,7.192,8.553,15.723c-6.84,7.171-17.257,10.048-26.867,7.707
					C596.343,510.409,582.872,489.25,588.338,483.312z"/>
				<linearGradient id="SVGID_20_" gradientUnits="userSpaceOnUse" x1="588.2627" y1="441.6826" x2="629.1387" y2="512.4819">
					<stop  offset="0" style="stop-color:#00ADE5"/>
					<stop  offset="1" style="stop-color:#1E4394"/>
				</linearGradient>
				<path style="fill:url(#SVGID_20_);" d="M599.032,496.563c1.179,1.558,2.438,3.06,3.733,4.493
					c1.002,1.109,2.076,2.143,3.181,3.114c2.348-7.126,4.19-14.419,5.51-21.806c-1.66-1.187-3.302-2.438-4.828-3.784
					c-1.679-1.481-3.338-3.1-4.889-4.753c-1.554-1.653-3.032-3.391-4.429-5.174c-1.394-1.781-2.728-3.604-3.907-5.515
					c1.245,1.862,2.636,3.626,4.086,5.343c1.449,1.718,2.977,3.38,4.572,4.951s3.289,3.093,4.994,4.472
					c1.465,1.185,3.027,2.28,4.602,3.304c1.017-5.749,1.697-11.69,2.005-17.52c-1.646-1.536-3.28-3.083-4.771-4.8
					c-0.813-0.85-1.542-1.799-2.319-2.681c-0.726-0.941-1.484-1.857-2.183-2.801c-1.389-1.879-2.782-3.818-4.059-5.793
					c-1.276-1.974-2.501-3.978-3.593-6.05c1.158,2.028,2.445,3.979,3.779,5.894c1.335,1.915,2.784,3.787,4.221,5.591
					c0.723,0.906,1.505,1.78,2.252,2.68c0.797,0.84,1.546,1.743,2.376,2.544c1.38,1.471,2.868,2.79,4.37,4.082
					c0.355-11.587-0.289-22.788-1.953-34.253c1.978,11.463,2.921,22.693,2.874,34.333c1.58-1.063,3.119-2.246,4.555-3.624
					c1.651-1.586,3.237-3.32,4.685-5.229c1.444-1.904,2.819-3.951,4.059-6.123c1.239-2.173,2.378-4.469,3.351-6.903
					c-0.901,2.489-1.976,4.849-3.157,7.094c-1.182,2.244-2.504,4.368-3.908,6.357c-1.404,1.995-2.958,3.821-4.593,5.506
					c-1.562,1.608-3.261,2.992-5.026,4.237c-0.309,6.021-0.819,11.85-1.565,17.832c1.791-0.192,3.605-0.593,5.339-1.261
					c2.008-0.774,4.021-1.837,5.912-3.107c1.896-1.272,3.74-2.768,5.484-4.429c1.743-1.661,3.418-3.489,4.95-5.527
					c-1.478,2.113-3.106,4.025-4.816,5.778c-1.707,1.75-3.526,3.34-5.413,4.712c-1.881,1.37-3.896,2.539-5.935,3.415
					c-1.821,0.785-3.755,1.286-5.688,1.549c-1.132,7.48-2.794,14.881-4.969,22.127c1.673-0.123,3.355-0.338,5.034-0.704
					c2.102-0.46,4.216-1.051,6.295-1.828c2.078-0.775,4.162-1.682,6.201-2.745c2.04-1.063,4.059-2.261,6.02-3.647
					c-1.931,1.479-3.928,2.773-5.953,3.933c-2.022,1.159-4.102,2.163-6.18,3.034c-2.081,0.874-4.208,1.562-6.332,2.114
					c-1.798,0.468-3.61,0.76-5.422,0.952c-2.65,8.464-5.894,16.788-9.914,24.702c-0.998-0.53-1.498-0.796-2.497-1.326
					c4.168-7.688,7.58-15.802,10.414-24.067c-1.177-1.135-2.308-2.325-3.346-3.596c-1.254-1.529-2.461-3.115-3.583-4.746
					c-1.122-1.629-2.216-3.285-3.254-4.958c-1.036-1.672-2.044-3.358-2.979-5.073c1.004,1.668,2.076,3.303,3.176,4.918
					C596.697,493.416,597.852,495.007,599.032,496.563z"/>
			</g>
		</g>
		<g>
			<g>
				<linearGradient id="SVGID_21_" gradientUnits="userSpaceOnUse" x1="622.0322" y1="477.3271" x2="644.2959" y2="515.889">
					<stop  offset="0" style="stop-color:#00B3CE"/>
					<stop  offset="0.1589" style="stop-color:#00AFD3"/>
					<stop  offset="0.433" style="stop-color:#00ACDB"/>
					<stop  offset="0.7119" style="stop-color:#00AAE0"/>
					<stop  offset="1" style="stop-color:#00A9E3"/>
				</linearGradient>
				<path style="fill:url(#SVGID_21_);" d="M613.838,493.92c3.642-0.786,6.139,7.286,6.139,7.286
					c-0.209-5.079-1.96-18.478,3.333-20.178c4.295-1.379,6.947,4.358,7.267,8.321c0.102-4.433-0.692-18.546,4.046-19.063
					c4.141-0.451,5.138,6.42,4.655,10.099c1.475-3.54,5.537-15.808,11.931-12.269c6.111,3.565-0.885,13.927-3.798,17.605
					c2.676-1.918,9.06-5.593,10.525-0.935c2.376,7.55-16.267,13.472-16.267,13.472c0,0.001,10.279-0.397,8.579,5.354
					c-2.407,8.138-13.075,9.631-20.178,8.103c10.222,1.945,6.66,10.87-1.451,12.471c-6.819,1.346-13.953-1.215-18.518-6.441
					C607.475,512.69,608.303,495.115,613.838,493.92z"/>
				<linearGradient id="SVGID_22_" gradientUnits="userSpaceOnUse" x1="616.7148" y1="484.2471" x2="635.7686" y2="517.2491">
					<stop  offset="0" style="stop-color:#00ADE5"/>
					<stop  offset="1" style="stop-color:#1E4394"/>
				</linearGradient>
				<path style="fill:url(#SVGID_22_);" d="M614.611,505.84c0.048,1.37,0.162,2.739,0.325,4.086c0.126,1.04,0.323,2.066,0.564,3.069
					c4.227-3.137,8.229-6.573,11.971-10.274c-0.472-1.35-0.906-2.731-1.236-4.12c-0.365-1.526-0.661-3.124-0.882-4.699
					c-0.222-1.576-0.368-3.17-0.448-4.757c-0.08-1.584-0.106-3.169-0.011-4.739c-0.04,1.569,0.046,3.143,0.182,4.713
					c0.139,1.57,0.341,3.142,0.621,4.688c0.279,1.544,0.637,3.102,1.055,4.582c0.362,1.27,0.814,2.53,1.304,3.752
					c2.905-2.883,5.697-6.015,8.23-9.232c-0.324-1.547-0.636-3.093-0.796-4.68c-0.122-0.815-0.157-1.654-0.245-2.474
					c-0.037-0.833-0.102-1.665-0.12-2.488c-0.037-1.639-0.052-3.313,0.014-4.962c0.066-1.646,0.175-3.291,0.387-4.918
					c-0.155,1.63-0.207,3.267-0.216,4.904s0.064,3.297,0.159,4.912c0.048,0.81,0.145,1.628,0.208,2.444
					c0.119,0.804,0.183,1.625,0.335,2.42c0.195,1.4,0.517,2.758,0.855,4.106c4.886-6.498,9.044-13.181,12.723-20.426
					c-3.499,7.371-7.496,14.188-12.228,20.845c1.335,0.029,2.695-0.028,4.076-0.237c1.588-0.241,3.197-0.596,4.798-1.104
					c1.598-0.508,3.213-1.125,4.801-1.869c1.59-0.745,3.17-1.601,4.712-2.603c-1.523,1.062-3.093,1.979-4.677,2.79
					c-1.586,0.809-3.202,1.491-4.811,2.065c-1.612,0.574-3.24,0.994-4.858,1.299c-1.545,0.29-3.079,0.397-4.594,0.397
					c-2.61,3.327-5.26,6.461-8.104,9.589c1.103,0.614,2.306,1.118,3.57,1.436c1.463,0.367,3.046,0.571,4.644,0.608
					c1.602,0.036,3.264-0.074,4.935-0.322s3.369-0.619,5.071-1.167c-1.7,0.613-3.409,1.052-5.096,1.364
					c-1.687,0.314-3.371,0.49-5.007,0.515c-1.634,0.023-3.26-0.12-4.784-0.441c-1.361-0.286-2.673-0.78-3.887-1.411
					c-3.672,3.831-7.614,7.4-11.791,10.676c1.009,0.604,2.061,1.163,3.172,1.631c1.388,0.586,2.841,1.101,4.347,1.496
					c1.504,0.395,3.064,0.719,4.663,0.933c1.599,0.215,3.24,0.344,4.925,0.342c-1.703,0.067-3.371,0.004-5.001-0.151
					c-1.629-0.152-3.226-0.417-4.769-0.758c-1.547-0.341-3.043-0.805-4.485-1.347c-1.219-0.459-2.377-1.023-3.492-1.646
					c-4.939,3.78-10.164,7.241-15.668,10.153c-0.357-0.708-0.536-1.063-0.896-1.77c5.498-2.723,10.731-5.995,15.697-9.589
					c-0.216-1.126-0.382-2.265-0.465-3.412c-0.099-1.383-0.15-2.781-0.136-4.169c0.016-1.388,0.059-2.78,0.14-4.157
					c0.081-1.378,0.186-2.752,0.343-4.113c-0.1,1.363-0.146,2.732-0.168,4.103C614.547,503.093,614.565,504.471,614.611,505.84z"/>
			</g>
		</g>
		<linearGradient id="SVGID_23_" gradientUnits="userSpaceOnUse" x1="162.9199" y1="485.5391" x2="226.0786" y2="594.9331">
			<stop  offset="0" style="stop-color:#FDEF3B"/>
			<stop  offset="0.2513" style="stop-color:#FFD045"/>
			<stop  offset="1" style="stop-color:#F78F47"/>
		</linearGradient>
		<path style="fill:url(#SVGID_23_);" d="M88.662,529.541c9.629-1.833,16.577,5.396,17.036,5.855
			c0.423-1.481,4.621-15.132,18.235-19.963c8.606-3.07,16.19-0.882,18.8,0c-1.729-4.657-0.812-9.842,2.363-13.546
			c3.421-3.985,8.959-5.608,14.109-4.09c5.82-8.994,16.507-13.651,27.018-11.782c10.37,1.87,18.694,9.735,21.164,20
			c3.139-4.691,8.783-7.055,14.108-5.891c4.762,1.023,8.571,4.655,10.018,9.418c6.489-6.772,16.331-9.313,25.254-6.454
			c7.949,2.499,14.021,8.908,16.256,16.859c6.387-5.046,14.985-6.952,22.979-4.437c11.959,3.765,19.491,16.457,16.885,29.303
			c-13.098,0-26.197,0-39.296,0h-16.33H73.954C75.399,537.02,81.325,530.917,88.662,529.541z"/>
		<linearGradient id="SVGID_24_" gradientUnits="userSpaceOnUse" x1="510.96" y1="499.668" x2="559.064" y2="582.9866">
			<stop  offset="0" style="stop-color:#FDEF3B"/>
			<stop  offset="0.2513" style="stop-color:#FFD045"/>
			<stop  offset="1" style="stop-color:#F78F47"/>
		</linearGradient>
		<path style="fill:url(#SVGID_24_);" d="M454.402,533.182c7.333-1.396,12.626,4.11,12.975,4.46
			c0.323-1.129,3.52-11.524,13.889-15.205c6.556-2.337,12.331-0.671,14.318,0c-1.316-3.547-0.617-7.494,1.802-10.315
			c2.604-3.036,6.821-4.271,10.744-3.116c4.434-6.851,12.573-10.397,20.578-8.973c7.897,1.423,14.239,7.415,16.117,15.232
			c2.393-3.574,6.69-5.374,10.748-4.488c3.625,0.78,6.526,3.547,7.628,7.174c4.943-5.157,12.438-7.092,19.234-4.916
			c6.054,1.903,10.679,6.786,12.382,12.842c4.865-3.844,11.412-5.295,17.502-3.379c9.108,2.867,14.846,12.534,12.86,22.317
			c-9.978,0-19.953,0-29.929,0h-12.438H443.2C444.301,538.877,448.815,534.23,454.402,533.182z"/>
		<g>
			<g>
				<linearGradient id="SVGID_25_" gradientUnits="userSpaceOnUse" x1="482.1191" y1="496.3467" x2="499.6006" y2="526.6254">
					<stop  offset="0" style="stop-color:#00ADE5"/>
					<stop  offset="1" style="stop-color:#1E4394"/>
				</linearGradient>
				<path style="fill:url(#SVGID_25_);" d="M498.947,527.002h-8.914c0-4.778-3.147-9.488-5.501-13.503
					c-0.074-0.128-0.15-0.259-0.225-0.387c-2.027-3.501-4.662-6.753-5.442-10.826c-0.225-1.185-0.271-2.468,0.284-3.537
					c0.592-1.144,1.792-1.874,3.039-2.193C497.036,492.749,500.141,512.574,498.947,527.002z"/>
				<linearGradient id="SVGID_26_" gradientUnits="userSpaceOnUse" x1="483.6514" y1="501.7666" x2="497.4443" y2="525.6567">
					<stop  offset="0" style="stop-color:#00B3CE"/>
					<stop  offset="0.1589" style="stop-color:#00AFD3"/>
					<stop  offset="0.433" style="stop-color:#00ACDB"/>
					<stop  offset="0.7119" style="stop-color:#00AAE0"/>
					<stop  offset="1" style="stop-color:#00A9E3"/>
				</linearGradient>
				<path style="fill:url(#SVGID_26_);" d="M495.114,527.002h-0.382c-0.033-2.02-0.245-4.041-0.571-6.032
					c-0.395-2.409-0.989-4.778-1.766-7.086c-1.547-4.615-3.914-8.95-7.016-12.736c-0.253-0.323-0.029-0.496,0.24-0.21
					c3.39,3.589,5.979,7.976,7.545,12.688c0.788,2.357,1.348,4.789,1.662,7.25C495.085,522.908,495.205,524.958,495.114,527.002z"/>
			</g>
			<linearGradient id="SVGID_27_" gradientUnits="userSpaceOnUse" x1="517.4102" y1="506.5693" x2="527.8833" y2="524.7094">
				<stop  offset="0" style="stop-color:#00ADE5"/>
				<stop  offset="1" style="stop-color:#1E4394"/>
			</linearGradient>
			<path style="fill:url(#SVGID_27_);" d="M514.84,527.002h9.071c0-11.631,13.157-23.053,3.238-24.286
				c-3.529-0.441-6.048,1.368-7.843,4.178C514.84,513.869,514.84,527.002,514.84,527.002z"/>
			<linearGradient id="SVGID_28_" gradientUnits="userSpaceOnUse" x1="489.875" y1="473.3369" x2="519.6553" y2="524.9178">
				<stop  offset="0" style="stop-color:#00ADE5"/>
				<stop  offset="1" style="stop-color:#1E4394"/>
			</linearGradient>
			<path style="fill:url(#SVGID_28_);" d="M504.911,527.002h11.134c1.814-16.752,1.319-58.745-22.937-54.621
				C474.496,475.544,504.436,499.736,504.911,527.002z"/>
			<g>
				<linearGradient id="SVGID_29_" gradientUnits="userSpaceOnUse" x1="493.6719" y1="483.9521" x2="516.7065" y2="523.8494">
					<stop  offset="0" style="stop-color:#00B3CE"/>
					<stop  offset="0.1589" style="stop-color:#00AFD3"/>
					<stop  offset="0.433" style="stop-color:#00ACDB"/>
					<stop  offset="0.7119" style="stop-color:#00AAE0"/>
					<stop  offset="1" style="stop-color:#00A9E3"/>
				</linearGradient>
				<path style="fill:url(#SVGID_29_);" d="M498.823,481.632c1.467,1.646,2.682,3.499,3.753,5.424
					c1.07,1.918,1.973,3.936,2.731,6.004c0.768,2.061,1.428,4.168,1.967,6.311c0.547,2.136,1.013,4.293,1.383,6.474
					c0.771,4.348,1.235,8.754,1.527,13.172c0.169,2.662,0.278,5.324,0.304,7.986h0.757c0.101-2.677,0.096-5.359,0-8.041
					c-0.173-4.461-0.589-8.929-1.372-13.341c-0.381-2.205-0.877-4.397-1.467-6.559c-0.58-2.166-1.3-4.298-2.146-6.38
					c-0.407-1.046-0.894-2.063-1.373-3.079c-0.526-0.996-1.031-1.997-1.636-2.944c-1.176-1.913-2.505-3.747-4.091-5.339
					C498.685,480.814,498.371,481.097,498.823,481.632z"/>
			</g>
			<g>
				<linearGradient id="SVGID_30_" gradientUnits="userSpaceOnUse" x1="493.6943" y1="508.5293" x2="504.6201" y2="527.4533">
					<stop  offset="0" style="stop-color:#00ADE5"/>
					<stop  offset="1" style="stop-color:#1E4394"/>
				</linearGradient>
				<path style="fill:url(#SVGID_30_);" d="M496.159,527.002h9.242c0,0,2.437-19.475-8.022-19.462
					C487.858,507.547,494.217,519.581,496.159,527.002z"/>
				<g>
					<linearGradient id="SVGID_31_" gradientUnits="userSpaceOnUse" x1="496.626" y1="513.3828" x2="503.8818" y2="525.9503">
						<stop  offset="0" style="stop-color:#00B3CE"/>
						<stop  offset="0.1589" style="stop-color:#00AFD3"/>
						<stop  offset="0.433" style="stop-color:#00ACDB"/>
						<stop  offset="0.7119" style="stop-color:#00AAE0"/>
						<stop  offset="1" style="stop-color:#00A9E3"/>
					</linearGradient>
					<path style="fill:url(#SVGID_31_);" d="M498.915,512.349c1.374,4.382,1.956,8.969,2.281,13.538
						c0.019,0.369,0.038,0.745,0.059,1.115h0.803c-0.013-0.396-0.033-0.785-0.059-1.174c-0.337-4.62-1.108-9.254-2.806-13.59
						C499.051,511.901,498.798,512.005,498.915,512.349z"/>
				</g>
			</g>
			<g>
				<linearGradient id="SVGID_32_" gradientUnits="userSpaceOnUse" x1="518.2822" y1="511.4033" x2="525.189" y2="523.3661">
					<stop  offset="0" style="stop-color:#00B3CE"/>
					<stop  offset="0.1589" style="stop-color:#00AFD3"/>
					<stop  offset="0.433" style="stop-color:#00ACDB"/>
					<stop  offset="0.7119" style="stop-color:#00AAE0"/>
					<stop  offset="1" style="stop-color:#00A9E3"/>
				</linearGradient>
				<path style="fill:url(#SVGID_32_);" d="M518.31,527.002h0.581c0.214-1.766,0.479-3.529,0.813-5.275
					c0.506-2.438,1.13-4.848,1.958-7.192c0.218-0.585,0.465-1.155,0.693-1.73c0.12-0.288,0.224-0.58,0.356-0.862l0.416-0.833
					l0.413-0.838c0.139-0.277,0.271-0.56,0.445-0.818l0.977-1.591c0.204-0.328,0.04-0.461-0.188-0.129l-1.062,1.556
					c-0.188,0.259-0.333,0.536-0.481,0.814l-0.456,0.827l-0.45,0.833c-0.145,0.277-0.259,0.57-0.392,0.858
					c-0.248,0.579-0.516,1.149-0.749,1.734c-0.902,2.354-1.576,4.789-2.087,7.258C518.756,523.397,518.494,525.197,518.31,527.002z"
					/>
			</g>
		</g>
		<linearGradient id="SVGID_33_" gradientUnits="userSpaceOnUse" x1="377.0928" y1="485.5381" x2="440.252" y2="594.933">
			<stop  offset="0" style="stop-color:#FDEF3B"/>
			<stop  offset="0.2513" style="stop-color:#FFD045"/>
			<stop  offset="1" style="stop-color:#F78F47"/>
		</linearGradient>
		<path style="fill:url(#SVGID_33_);" d="M302.834,529.541c9.629-1.833,16.578,5.396,17.036,5.855
			c0.424-1.481,4.621-15.132,18.236-19.963c8.606-3.07,16.189-0.882,18.799,0c-1.728-4.657-0.811-9.842,2.363-13.546
			c3.422-3.985,8.959-5.608,14.109-4.09c5.819-8.994,16.507-13.651,27.018-11.782c10.37,1.87,18.695,9.735,21.163,20
			c3.14-4.691,8.783-7.055,14.107-5.891c4.763,1.023,8.572,4.655,10.018,9.418c6.492-6.772,16.332-9.313,25.255-6.454
			c7.95,2.499,14.021,8.908,16.256,16.859c6.388-5.046,14.986-6.952,22.979-4.437c11.96,3.765,19.491,16.457,16.887,29.303
			c-13.1,0-26.197,0-39.297,0h-16.329H288.126C289.572,537.02,295.498,530.917,302.834,529.541z"/>
	</g>
	<g>
		<path style="fill:#D9E9F0;" d="M560.868,163.293c-12.48,4.677-22.806,13.69-29.184,25.223h20.488
			C554.459,176.854,557.928,168.591,560.868,163.293z M607.389,217.372h-24.673v20.617h22.938
			C606.627,231.953,607.295,225.154,607.389,217.372z M549.793,217.372h-24.977c0.271,7.349,2.099,14.264,4.958,20.617h21.753
			C550.565,231.941,549.899,225.154,549.793,217.372z M551.481,192.63h-21.859c-2.849,6.329-4.501,13.291-4.77,20.617h24.93
			C549.876,205.499,550.521,198.678,551.481,192.63z M611.549,213.247h24.402c-0.293-7.326-2.004-14.275-4.853-20.617h-21.261
			C610.799,198.667,611.432,205.499,611.549,213.247z M629.036,188.516c-6.282-11.334-16.291-20.312-28.504-25.047
			c2.918,5.31,6.352,13.502,8.603,25.047H629.036z M595.445,161.769c-4.079-1.148-8.333-1.84-12.729-2.039v28.786h22.305
			C602.513,175.635,598.515,166.962,595.445,161.769z M605.699,192.63h-22.983v20.617h24.696
			C607.318,205.499,606.661,198.678,605.699,192.63z M556.298,188.516h22.293v-28.774c-4.371,0.141-8.604,0.832-12.659,1.934
			C562.838,166.856,558.817,175.565,556.298,188.516z M600.426,267.197c12.249-4.735,22.305-13.713,28.575-25.083H609.11
			C606.838,253.776,603.368,261.946,600.426,267.197z M582.716,242.114v28.693c4.338-0.2,8.556-0.797,12.588-1.911
			c3.094-5.099,7.104-13.819,9.635-26.782H582.716z M609.779,237.989h21.202c2.837-6.353,4.643-13.268,4.923-20.617h-24.379
			C611.421,225.154,610.741,231.941,609.779,237.989z M555.653,237.989h22.938v-20.617h-24.673
			C554.024,225.154,554.692,231.953,555.653,237.989z M566.072,268.99c4.021,1.066,8.193,1.758,12.519,1.887v-28.763h-22.21
			C558.923,255.16,562.968,263.903,566.072,268.99z M531.743,242.114c6.389,11.545,16.715,20.593,29.242,25.258
			c-2.953-5.239-6.48-13.479-8.778-25.258H531.743z M553.896,213.247h24.695V192.63h-22.973
			C554.646,198.678,554.001,205.499,553.896,213.247z"/>
	</g>
	<g>
		<path style="fill:#D9E9F0;" d="M113.771,285.207c-0.048,0.804-0.072,1.611-0.072,2.422c0,3.674,0.5,7.41,1.548,11.108l0.008,0.032
			l4.842-1.375c1.518,5.335,4.188,10.022,7.638,13.911l-3.787,3.36c3.056,3.444,6.659,6.323,10.629,8.541l2.466-4.416
			c4.627,2.585,9.819,4.145,15.226,4.473l-0.307,5.047c0.815,0.05,1.634,0.074,2.455,0.074c3.674,0,7.41-0.5,11.108-1.548
			l0.127-0.036l-1.387-4.843c5.331-1.529,10.012-4.208,13.893-7.667l3.37,3.779c3.436-3.064,6.306-6.673,8.515-10.649l-4.421-2.455
			c2.574-4.633,4.118-9.83,4.434-15.237l5.049,0.294c0.045-0.781,0.069-1.567,0.069-2.355c0-3.674-0.501-7.41-1.548-11.108
			l-0.027-0.095l-4.842,1.382c-1.525-5.333-4.201-10.016-7.657-13.899l3.782-3.367c-3.062-3.439-6.668-6.312-10.643-8.524
			l-2.459,4.42c-4.632-2.578-9.826-4.127-15.234-4.447l0.299-5.049c-0.793-0.047-1.589-0.07-2.389-0.07
			c-3.674,0-7.41,0.501-11.109,1.548l-0.063,0.018l1.378,4.843c-5.333,1.521-10.019,4.194-13.905,7.647l-3.364-3.784
			c-3.441,3.059-6.317,6.663-8.532,10.636l4.417,2.462c-2.581,4.63-4.135,9.823-4.459,15.229L113.771,285.207z M163.033,318.031
			l0.249,0.879l0,0L163.033,318.031z M132.847,287.634c0.002-9.405,6.207-18.07,15.713-20.754c1.971-0.558,3.946-0.822,5.889-0.822
			c9.405,0.002,18.071,6.207,20.754,15.713c0.558,1.971,0.822,3.946,0.822,5.889c-0.002,9.405-6.207,18.071-15.713,20.755
			c-1.971,0.558-3.946,0.822-5.89,0.822c-9.404-0.002-18.07-6.207-20.754-15.713C133.111,291.554,132.847,289.579,132.847,287.634z"
			/>
		<polygon style="fill:#D9E9F0;" points="54.646,252.796 54.646,252.796 54.646,252.797 		"/>
		<path style="fill:#D9E9F0;" d="M82.656,213.717c0,2.588,0.353,5.221,1.09,7.825l0.021,0.075l3.254-0.93
			c0.751,2.62,1.907,5.009,3.35,7.155l-2.831,1.903c2.554,3.799,5.952,6.877,9.849,9.049l1.666-2.989
			c2.303,1.284,4.799,2.197,7.412,2.715l-0.666,3.366c1.808,0.358,3.664,0.543,5.543,0.543c2.589,0,5.221-0.353,7.826-1.09
			l0.299-0.087l0,0l-0.96-3.261c2.611-0.771,5.007-1.921,7.141-3.381l1.918,2.804c3.776-2.583,6.828-6.005,8.969-9.922h0
			l-2.992-1.636c1.265-2.313,2.159-4.818,2.655-7.437l3.361,0.637c0.328-1.736,0.499-3.515,0.499-5.313
			c0-2.59-0.354-5.222-1.091-7.825l-0.064-0.225l-3.259,0.95c-0.765-2.614-1.916-5.007-3.37-7.146l2.813-1.913
			c-2.574-3.784-5.988-6.845-9.898-8.996l-1.646,2.991c-2.31-1.271-4.813-2.172-7.429-2.675l0.647-3.362
			c-1.76-0.339-3.565-0.514-5.391-0.514c-2.589,0-5.222,0.354-7.825,1.091l-0.149,0.042l0.94,3.256
			c-2.617,0.757-5.008,1.912-7.15,3.36l-1.909-2.822c-3.792,2.563-6.86,5.97-9.022,9.874l2.99,1.655
			c-1.277,2.307-2.184,4.805-2.695,7.42l-3.363-0.657C82.837,210.034,82.656,211.864,82.656,213.717z M94.925,218.379
			c-0.442-1.563-0.65-3.125-0.65-4.661c0.003-7.438,4.911-14.301,12.433-16.421c1.562-0.442,3.125-0.65,4.661-0.651
			c7.438,0.003,14.301,4.911,16.422,12.434c0.441,1.562,0.65,3.125,0.651,4.661c-0.003,7.437-4.911,14.301-12.434,16.421
			c-1.563,0.442-3.124,0.65-4.661,0.65C103.909,230.81,97.045,225.901,94.925,218.379z"/>
	</g>
	<g>
		<linearGradient id="SVGID_34_" gradientUnits="userSpaceOnUse" x1="265.8271" y1="147.6851" x2="497.0679" y2="548.2057">
			<stop  offset="0" style="stop-color:#DFEAEE"/>
			<stop  offset="0.9947" style="stop-color:#AAC7D4"/>
		</linearGradient>
		<path style="fill:url(#SVGID_34_);" d="M604.833,218.851v258.22c0,8.518-6.937,15.455-15.456,15.455H173.478
			c-8.518,0-15.404-6.938-15.404-15.455v-258.22c0-8.586,6.886-15.455,15.404-15.455h415.899
			C597.896,203.396,604.833,210.264,604.833,218.851z"/>
		<g>
			<path style="fill:#0F254C;" d="M589.377,494.208H173.478c-9.422,0-17.088-7.688-17.088-17.138v-258.22
				c0-9.451,7.666-17.139,17.088-17.139h415.899c9.451,0,17.14,7.688,17.14,17.139v258.22
				C606.517,486.52,598.828,494.208,589.377,494.208z M173.478,205.079c-7.565,0-13.721,6.178-13.721,13.771v258.22
				c0,7.593,6.155,13.771,13.721,13.771h415.899c7.595,0,13.772-6.178,13.772-13.771v-258.22c0-7.594-6.178-13.771-13.772-13.771
				H173.478z"/>
		</g>
		<path style="fill:#0A4A79;" d="M604.833,464.007v13.061c0,8.523-6.93,15.453-15.453,15.453H173.478
			c-8.524,0-15.403-6.93-15.403-15.453v-13.061H604.833z"/>
		<linearGradient id="SVGID_35_" gradientUnits="userSpaceOnUse" x1="280.8066" y1="159.2383" x2="482.1016" y2="507.8913">
			<stop  offset="0" style="stop-color:#00ADE5"/>
			<stop  offset="1" style="stop-color:#1E4394"/>
		</linearGradient>
		<rect x="174.575" y="220.57" style="fill:url(#SVGID_35_);" width="413.758" height="225.988"/>
		<rect x="328.695" y="492.521" style="fill:#0F254C;" width="105.517" height="47.923"/>
		<rect x="298.184" y="540.443" style="fill:#0A4A79;" width="166.541" height="9.499"/>
	</g>
	<path style="fill:#BFD5DF;" d="M545.91,203.396V384.93c0,2.105-1.298,3.956-3.283,4.664l-157.276,56.971l-2.087,0.758
		c-1.953,0.707-3.957,1.061-6.027,1.061c-2.054,0-4.074-0.354-5.993-1.044l-2.139-0.774l-157.241-56.971
		c-1.987-0.708-3.283-2.559-3.283-4.664V203.396h161.552l7.104,2.508l2.862-0.994l-0.017-1.515H545.91z"/>
	<g>
		<g>
			<g>
				<path style="fill:#F7FAFC;" d="M253.984,508.877c10.264,0,18.615,8.352,18.615,18.615s-8.351,18.615-18.615,18.615H103.968
					v-37.23H253.984z"/>
				<g>
					<rect x="103.964" y="535.763" style="fill:#CCD9E2;" width="159.976" height="1.548"/>
				</g>
				<g>
					<rect x="103.964" y="529.729" style="fill:#CCD9E2;" width="163.13" height="1.548"/>
				</g>
				<g>
					<rect x="103.964" y="523.703" style="fill:#CCD9E2;" width="163.13" height="1.548"/>
				</g>
				<g>
					<rect x="103.964" y="517.676" style="fill:#CCD9E2;" width="159.984" height="1.549"/>
				</g>
			</g>
			<path style="fill:#0F254C;" d="M100.425,505.042h153.559c12.378,0,22.45,10.07,22.45,22.45c0,12.379-10.071,22.45-22.45,22.45
				H100.425v-7.668h153.559c8.15,0,14.781-6.632,14.781-14.782s-6.63-14.781-14.781-14.781H100.425V505.042z"/>
		</g>
		<g>
			<g>
				<path style="fill:#F7FAFC;" d="M141.401,501.208c-10.264,0-18.615-8.352-18.615-18.615c0-10.265,8.351-18.615,18.615-18.615
					h150.017v37.23H141.401z"/>
				<g>
					<rect x="131.445" y="472.772" style="fill:#CCD9E2;" width="159.976" height="1.549"/>
				</g>
				<g>
					<rect x="128.291" y="478.808" style="fill:#CCD9E2;" width="163.13" height="1.548"/>
				</g>
				<g>
					<rect x="128.291" y="484.834" style="fill:#CCD9E2;" width="163.13" height="1.549"/>
				</g>
				<g>
					<rect x="131.437" y="490.859" style="fill:#CCD9E2;" width="159.984" height="1.548"/>
				</g>
			</g>
			<linearGradient id="SVGID_36_" gradientUnits="userSpaceOnUse" x1="182.9053" y1="432.7139" x2="242.2383" y2="535.4817">
				<stop  offset="0" style="stop-color:#FDEF3B"/>
				<stop  offset="0.2513" style="stop-color:#FFD045"/>
				<stop  offset="1" style="stop-color:#F78F47"/>
			</linearGradient>
			<path style="fill:url(#SVGID_36_);" d="M294.96,505.042H141.401c-12.379,0-22.449-10.07-22.449-22.449
				c0-12.378,10.07-22.45,22.449-22.45H294.96v7.668H141.401c-8.15,0-14.781,6.632-14.781,14.782s6.63,14.781,14.781,14.781H294.96
				V505.042z"/>
		</g>
		<g>
			<g>
				<path style="fill:#F7FAFC;" d="M116.397,456.308c-10.264,0-18.615-8.351-18.615-18.615c0-10.264,8.351-18.616,18.615-18.616
					h150.017v37.231H116.397z"/>
				<g>
					<rect x="106.441" y="428.132" style="fill:#CCD9E2;" width="159.977" height="1.031"/>
				</g>
				<g>
					<rect x="103.287" y="434.167" style="fill:#CCD9E2;" width="163.131" height="1.031"/>
				</g>
				<g>
					<rect x="103.287" y="440.191" style="fill:#CCD9E2;" width="163.131" height="1.032"/>
				</g>
				<g>
					<rect x="106.432" y="446.219" style="fill:#CCD9E2;" width="159.985" height="1.031"/>
				</g>
			</g>
			<linearGradient id="SVGID_37_" gradientUnits="userSpaceOnUse" x1="157.9014" y1="387.8135" x2="217.2349" y2="490.5821">
				<stop  offset="0" style="stop-color:#00ADE5"/>
				<stop  offset="1" style="stop-color:#1E4394"/>
			</linearGradient>
			<path style="fill:url(#SVGID_37_);" d="M269.956,460.143H116.397c-12.379,0-22.449-10.07-22.449-22.449
				c0-12.38,10.07-22.451,22.449-22.451h153.559v7.669H116.397c-8.15,0-14.781,6.632-14.781,14.782s6.631,14.781,14.781,14.781
				h153.559V460.143z"/>
		</g>
	</g>
	<g>
		<g>
			<path style="fill:#009FD2;" d="M529.436,172.431c-0.763-0.518-1.652-0.783-2.548-0.783c-0.567,0-1.138,0.106-1.679,0.322
				l-14.483,5.766L377.24,224.896l-133.483-47.158l-14.475-5.767c-0.542-0.217-1.112-0.323-1.68-0.323
				c-0.896,0-1.785,0.265-2.547,0.783c-1.246,0.844-1.991,2.251-1.991,3.755v202.208c0,1.911,1.196,3.616,2.993,4.267l145.7,52.769
				c1.755,0.64,3.604,0.966,5.484,0.966c1.88,0,3.729-0.325,5.496-0.967l145.696-52.768c1.796-0.65,2.993-2.355,2.993-4.267V176.186
				C531.427,174.683,530.681,173.275,529.436,172.431z"/>
			<polygon style="fill:#BFD5DF;" points="512.32,167.025 512.32,372.473 526.888,378.944 526.888,176.737 			"/>
			<path style="fill:#9FB9C8;" d="M381.098,418.834c-1.253,0.445-2.551,0.672-3.857,0.672c-1.308,0-2.605-0.227-3.857-0.672
				L242.16,372.473l-14.558,6.472l145.7,52.77c2.541,0.926,5.336,0.926,7.887,0l145.699-52.77l-14.567-6.472L381.098,418.834z"/>
			<polygon style="fill:#F9FCFD;" points="242.16,167.025 227.602,176.737 227.602,378.944 242.16,372.473 			"/>
			<path style="fill:#F9FCFD;" d="M377.24,419.506c1.307,0,2.604-0.227,3.857-0.672l131.223-46.361V167.025l-135.08,47.722v204.749
				V419.506z"/>
			<path style="fill:#E7E8E8;" d="M489.449,330.537l-98.667,34.853c-0.709,0.251-1.081,1.027-0.83,1.737
				c0.25,0.709,1.027,1.081,1.737,0.83l98.666-34.853c0.709-0.25,1.082-1.028,0.831-1.737
				C490.937,330.658,490.158,330.286,489.449,330.537z M489.449,316.314l-98.667,34.853c-0.709,0.251-1.081,1.029-0.83,1.738
				c0.25,0.708,1.027,1.08,1.737,0.83l98.666-34.853c0.709-0.251,1.082-1.028,0.831-1.737
				C490.937,316.436,490.158,316.065,489.449,316.314z M489.449,302.093l-98.667,34.853c-0.709,0.251-1.081,1.028-0.83,1.737
				c0.25,0.709,1.027,1.08,1.737,0.83l98.666-34.853c0.709-0.251,1.082-1.028,0.831-1.737
				C490.937,302.214,490.158,301.842,489.449,302.093z M489.449,344.75l-98.667,34.862c-0.709,0.251-1.081,1.027-0.83,1.736
				s1.028,1.08,1.737,0.831l98.666-34.861c0.709-0.251,1.082-1.029,0.831-1.738C490.937,344.871,490.158,344.5,489.449,344.75z
				 M391.689,225.752l98.666-34.861c0.709-0.25,1.082-1.028,0.831-1.738c-0.25-0.708-1.028-1.08-1.737-0.83l-98.667,34.861
				c-0.709,0.251-1.081,1.028-0.83,1.738C390.203,225.631,390.98,226.002,391.689,225.752z M489.449,358.973l-98.667,34.861
				c-0.709,0.251-1.081,1.028-0.83,1.737s1.028,1.08,1.737,0.831l98.666-34.862c0.709-0.25,1.082-1.028,0.831-1.737
				C490.937,359.094,490.158,358.723,489.449,358.973z M489.449,216.768l-98.667,34.861c-0.709,0.251-1.081,1.028-0.83,1.738
				c0.251,0.709,1.028,1.081,1.737,0.83l98.666-34.861c0.709-0.25,1.082-1.028,0.831-1.737
				C490.937,216.889,490.158,216.518,489.449,216.768z M489.449,230.99l-98.667,34.853c-0.709,0.25-1.081,1.028-0.83,1.737
				c0.25,0.709,1.027,1.081,1.737,0.831l98.666-34.853c0.709-0.251,1.082-1.028,0.831-1.737
				C490.937,231.111,490.158,230.74,489.449,230.99z M489.449,202.545l-98.667,34.862c-0.709,0.25-1.081,1.028-0.83,1.738
				c0.251,0.708,1.028,1.08,1.737,0.83l98.666-34.862c0.709-0.25,1.082-1.028,0.831-1.737
				C490.937,202.667,490.158,202.295,489.449,202.545z M489.449,245.212l-98.667,34.853c-0.709,0.251-1.081,1.028-0.83,1.737
				c0.25,0.709,1.027,1.081,1.737,0.83l98.666-34.852c0.709-0.251,1.082-1.028,0.831-1.737
				C490.937,245.333,490.158,244.962,489.449,245.212z M489.449,259.435l-98.667,34.853c-0.709,0.25-1.081,1.028-0.83,1.737
				c0.25,0.71,1.027,1.081,1.737,0.831l98.666-34.853c0.709-0.251,1.082-1.028,0.831-1.737
				C490.937,259.556,490.158,259.185,489.449,259.435z M489.449,287.87l-98.667,34.861c-0.709,0.25-1.081,1.028-0.83,1.738
				c0.251,0.709,1.028,1.081,1.737,0.831l98.666-34.862c0.709-0.251,1.082-1.028,0.831-1.738
				C490.937,287.992,490.158,287.62,489.449,287.87z M489.449,273.648l-98.667,34.861c-0.709,0.251-1.081,1.028-0.83,1.737
				s1.028,1.081,1.737,0.831l98.666-34.862c0.709-0.25,1.082-1.028,0.831-1.737C490.937,273.77,490.158,273.398,489.449,273.648z"/>
			<path style="fill:#BFD5DF;" d="M377.24,419.506c-1.308,0-2.605-0.227-3.857-0.672L242.16,372.473V167.025l135.08,47.722v204.749
				V419.506z"/>
			<path style="fill:#E7E8E8;" d="M263.294,331.367c-0.25,0.709,0.122,1.487,0.831,1.737l98.667,34.853
				c0.708,0.251,1.486-0.121,1.736-0.83c0.251-0.71-0.121-1.486-0.83-1.737l-98.667-34.853
				C264.322,330.286,263.545,330.658,263.294,331.367z M263.294,317.146c-0.25,0.709,0.122,1.485,0.831,1.737l98.667,34.853
				c0.708,0.25,1.486-0.122,1.736-0.83c0.251-0.709-0.121-1.487-0.83-1.738l-98.667-34.853
				C264.322,316.065,263.545,316.436,263.294,317.146z M263.294,302.923c-0.25,0.709,0.122,1.486,0.831,1.737l98.667,34.853
				c0.708,0.25,1.486-0.121,1.736-0.83c0.251-0.709-0.121-1.486-0.83-1.737l-98.667-34.853
				C264.322,301.842,263.545,302.214,263.294,302.923z M263.294,345.58c-0.25,0.709,0.122,1.487,0.83,1.738l98.667,34.861
				c0.709,0.249,1.487-0.122,1.737-0.831c0.251-0.709-0.121-1.485-0.83-1.736l-98.667-34.862
				C264.322,344.5,263.545,344.871,263.294,345.58z M364.528,224.922c0.251-0.709-0.121-1.486-0.83-1.738l-98.667-34.861
				c-0.709-0.25-1.487,0.122-1.737,0.83c-0.25,0.71,0.122,1.487,0.83,1.738l98.667,34.861
				C363.5,226.002,364.278,225.631,364.528,224.922z M263.294,359.803c-0.25,0.709,0.122,1.487,0.83,1.737l98.667,34.862
				c0.709,0.249,1.487-0.122,1.737-0.831c0.251-0.709-0.121-1.486-0.83-1.737l-98.667-34.861
				C264.322,358.723,263.545,359.094,263.294,359.803z M263.294,217.599c-0.25,0.709,0.122,1.486,0.83,1.737l98.667,34.861
				c0.709,0.25,1.487-0.121,1.737-0.83c0.251-0.709-0.121-1.486-0.83-1.738l-98.667-34.861
				C264.322,216.518,263.545,216.889,263.294,217.599z M263.294,231.82c-0.25,0.709,0.122,1.486,0.831,1.737l98.667,34.853
				c0.708,0.25,1.486-0.122,1.736-0.831c0.251-0.708-0.121-1.486-0.83-1.737l-98.667-34.853
				C264.322,230.74,263.545,231.111,263.294,231.82z M263.294,203.376c-0.25,0.709,0.122,1.486,0.83,1.737l98.667,34.862
				c0.709,0.25,1.487-0.122,1.737-0.83c0.251-0.71-0.121-1.487-0.83-1.738l-98.667-34.862
				C264.322,202.295,263.545,202.667,263.294,203.376z M263.294,246.043c-0.25,0.709,0.122,1.486,0.831,1.737l98.667,34.852
				c0.708,0.25,1.486-0.121,1.736-0.83c0.251-0.709-0.121-1.486-0.83-1.737l-98.667-34.853
				C264.322,244.962,263.545,245.333,263.294,246.043z M263.294,260.265c-0.25,0.709,0.122,1.486,0.831,1.737l98.667,34.853
				c0.708,0.25,1.486-0.121,1.736-0.831c0.251-0.708-0.121-1.486-0.83-1.737l-98.667-34.853
				C264.322,259.185,263.545,259.556,263.294,260.265z M263.294,288.7c-0.25,0.71,0.122,1.486,0.83,1.738l98.667,34.862
				c0.709,0.25,1.487-0.122,1.737-0.831c0.251-0.709-0.121-1.487-0.83-1.738l-98.667-34.861
				C264.322,287.62,263.545,287.992,263.294,288.7z M263.294,274.479c-0.25,0.709,0.122,1.486,0.83,1.737l98.667,34.862
				c0.709,0.25,1.487-0.122,1.737-0.831c0.251-0.709-0.121-1.486-0.83-1.737l-98.667-34.861
				C264.322,273.398,263.545,273.77,263.294,274.479z"/>
		</g>
		<linearGradient id="SVGID_38_" gradientUnits="userSpaceOnUse" x1="339.9194" y1="235.1616" x2="434.8667" y2="399.6151">
			<stop  offset="0" style="stop-color:#FDEF3B"/>
			<stop  offset="0.2513" style="stop-color:#FFD045"/>
			<stop  offset="1" style="stop-color:#F78F47"/>
		</linearGradient>
		<polygon style="fill:url(#SVGID_38_);" points="379.841,212.112 381.604,427.253 388.438,416.435 395.497,422.345 
			393.122,207.418 		"/>
	</g>
	<g>
		<g>
			<linearGradient id="SVGID_39_" gradientUnits="userSpaceOnUse" x1="542.1094" y1="399.0244" x2="599.3369" y2="498.1454">
				<stop  offset="0" style="stop-color:#FDEF3B"/>
				<stop  offset="0.2513" style="stop-color:#FFD045"/>
				<stop  offset="1" style="stop-color:#F78F47"/>
			</linearGradient>
			<path style="fill:url(#SVGID_39_);" d="M514.557,434.481c7.609-30.307,38.927-48.562,69.946-40.771
				c31.02,7.789,49.996,38.673,42.387,68.979c-7.609,30.307-38.926,48.562-69.947,40.771
				C525.924,495.671,506.947,464.789,514.557,434.481z"/>
			<g>
				<path style="fill:#BDC0C2;" d="M558.356,396.483c-3.244-1.148-3.244-1.148-5.368-0.258
					C555.184,398.569,555.184,398.569,558.356,396.483z M570.394,453.202c0.624-0.463,1.265-0.938,1.849-1.371
					c-0.216-0.525-0.296-0.979-0.424-0.993c-2.467-0.271-4.938-0.49-8.012-0.775C566.038,451.967,568.948,450.848,570.394,453.202z
					 M564.066,396.033c-0.171,0.684-0.313,1.25-0.474,1.887c0.515,0.425,1.03,0.852,1.576,1.304
					c-1.609,0.517-1.127,1.486-0.926,2.686c0.108,0.64-0.959,1.477-1.771,2.606c3.411-0.161,5.929-0.501,7.841-3.119
					c0.744-1.018,2.707-1.147,4.303-1.752c-0.391-0.917-0.604-1.422-0.863-2.031c0.403-0.008,1.028,0.151,1.185-0.052
					c0.976-1.272,2.831-1.071,3.743-2.129c1.264-1.467,2.678-1.846,4.331-1.284c0.945,0.32,1.582,0.146,2.106-0.276
					c-0.205-0.054-0.408-0.11-0.615-0.162c-6.206-1.56-12.426-2.072-18.465-1.656c-0.284,0.22-0.56,0.448-0.813,0.7
					c-0.813,0.805-1.728,1.013-2.767,1.316c0.24,0.68,0.282,1.13,0.527,1.396C563.245,395.747,563.695,395.85,564.066,396.033z
					 M567.035,415.873c-1.125,0.438-2.252,0.874-3.612,1.403c-0.094,0.375-0.263,1.05-0.437,1.739
					c1.53,0.038,2.979,0.075,4.678,0.118c-0.147-0.617-0.288-1.127-0.387-1.645C567.176,416.954,567.113,416.409,567.035,415.873z
					 M533.658,408.727c-0.308-1.418-0.445-2.044-0.663-3.045c1.954-0.087,3.708-0.165,5.661-0.252
					c0.476-0.594,1.148-1.437,1.834-2.293c-1.267-1.077-2.434-1.29-3.55-0.896c-3.966,2.751-7.579,6-10.734,9.684
					c-0.059,0.91-0.544,1.845-0.661,2.757c-2.454,1.183-0.253,2.843-0.882,4.387c1.394-0.224,2.333-0.374,3.186-0.512
					c0.979-1.686,1.941-3.346,3.119-5.375c-0.389-0.464-1.113-1.323-1.729-2.054C530.838,410.259,532.359,409.433,533.658,408.727z
					 M581.641,450.527c0.84,0.338,1.493,2.756,2.813-0.051c-2.263-0.517-4.131-2.092-6.57-0.452
					c-0.624,0.418-1.907-0.241-2.876-0.193c-0.356,0.017-0.682,0.65-1.08,1.064C576.829,453.391,579.128,450.339,581.641,450.527z
					 M619.003,421.371c-0.134-1.127,0.063-2.007,0.477-2.73c-3.528-5.456-7.992-10.341-13.236-14.398
					c-0.604,0.196-1.303,0.455-1.865,0.603c-0.224-0.347-0.525-0.814-0.965-1.498c0.453-0.081,0.863-0.154,1.315-0.235
					c-1.595-1.154-3.258-2.233-4.982-3.229c-0.633,0.138-1.286,0.282-1.988,0.438c0.09,0.44,0.222,1.084,0.401,1.964
					c-0.697,0.187-1.55,0.415-3.357,0.901c1.091-1.541,1.608-2.274,2.074-2.931c-0.575-0.913-1.148-1.82-1.753-2.78
					c-1.158-0.539-2.34-1.047-3.545-1.515c-0.632-0.033-1.325-0.069-2.092-0.11c0.136-0.192,0.256-0.362,0.37-0.523
					c-0.791-0.28-1.588-0.545-2.396-0.792c0.212,0.58,0.43,1.176,0.67,1.828c1.231,0.311,2.585,0.65,3.94,0.99
					c-0.047,0.221-0.095,0.441-0.142,0.662c-1.48-0.292-2.959-0.584-4.687-0.923c-3.017,1.313-6.253,2.722-9.744,4.242
					c0.379,0.778,0.773,1.59,1.25,2.571c-0.361,0.365-0.747,0.756-1.212,1.228c0.688,0.608,1.456,1.285,2.205,1.946
					c3.52-1.837,3.52-1.837,6.528-1.451c-0.915-1.167-1.822-2.325-2.763-3.524c0.506-0.29,0.882-0.521,1.272-0.727
					c2.631-1.396,3.037-1.19,4.083,1.825c0.284,0.815,0.792,1.552,1.338,2.598c-0.735,0.283-1.529,0.585-3.187,1.221
					c1.745,0.438,2.562,0.812,3.378,0.807c1.092-0.007,2.775-0.979,3.149,0.034c0.651,1.759,2.352,2.719,2.811,4.46
					c0.271,1.043,0.04,2.034-1.077,2.512c-1.025,0.437-2.066,0.938-3.149,1.118c-1.082,0.181-2.223,0-3.665-0.029
					c-0.692,1.193-0.229,3.896-3.354,3.471c-0.205-1.651,1.002-3.653-0.701-5.151c-0.176-0.156-0.069-0.998,0.175-1.204
					c1.792-1.521,0.697-3.535,1.03-5.206c-3.703-2.7-5.082,1.869-7.958,2.696c-0.269-0.96-0.472-1.68-0.703-2.502
					c-0.456,0.091-0.954,0.049-1.236,0.275c-0.643,0.514-1.287,1.086-1.735,1.765c-0.736,1.116-1.774,1.631-3.009,1.752
					c-1.629,0.16-2.966,0.808-4.308,2.255c0.869,1.226,2.666,1.383,3.333,2.908c0.583,1.331,1.843,2.365,3.014,3.787
					c-0.976,0.628-1.657,1.067-2.277,1.466c-0.904-0.64-1.638-1.159-2.372-1.679c-0.172,0.194-0.344,0.39-0.516,0.586
					c1.376,1.341,2.751,2.683,4.254,4.147c0.245-0.513,0.423-0.886,0.677-1.415c0.937,0.515,1.932,1.06,2.999,1.645
					c-0.087,0.677-0.177,1.375-0.267,2.073c1.331,1.096,2.928,1.889,3.188,3.951c0.081,0.641,1.089,1.164,1.671,1.742
					c-1.705,1.947-1.801,2.271-0.754,3.575c1.154,1.437,2.372,2.822,3.456,4.105c-0.68,2.439-2.749,4.066-2.294,6.912
					c1.466-1.644,2.715-3.048,4.188-4.7c1.495,0.049,3.415,0.114,5.283,0.177c0.099,0.896,0.158,1.439,0.217,1.979
					c3.722-0.165,3.722-0.165,6.246,2.982c-0.568,2.261-1.141,4.548-1.729,6.884c-1.291,0.725-2.336,1.968-4.287,1.336
					c-1.852-0.6-1.611-2.091-2.049-3.327c-0.871-0.219-1.73-0.435-2.827-0.71c0.129,1.753,0.253,3.433,0.402,5.423
					c-1.474-0.274-2.852-0.533-4.621-0.863c-0.439,0.765-1.186,1.54-1.335,2.417c-0.504,2.974-1.037,3.555-3.856,3.466
					c-0.839-0.026-1.676-0.117-2.515-0.152c-0.03-0.001-0.071,0.27-0.107,0.413c5.81,1.922,5.912,1.899,11.032-2.619
					c0.31,0.303,0.707,0.936,0.938,0.878c1.079-0.261,2.325-0.467,3.112-1.15c1.514-1.312,2.954-0.727,4.541-0.447
					c3.423,0.606,6.31-0.939,9.15-2.545c-0.604-1.829,0.766-2.46,1.891-3.383c1.046-0.858,1.814-2.048,2.762-3.039
					c0.392-0.411,0.929-0.684,1.699-1.233c-0.092,1.208-0.154,2.031-0.19,2.486c0.766-0.373,1.717-0.835,2.578-1.256
					c-1.152-1.009,0.943-1.205,0.937-2.099c-0.007-0.859,0.385-1.722,0.601-2.584c0.928-1.284,2.579-1.491,3.621-2.932
					c1.946-2.691,1.872-5.412,1.504-8.342c-0.051-0.408-0.085-0.817-0.16-1.221c-0.415-2.286-0.327-2.266,0.344-5.184
					c0.272-1.185-0.052-2.492,0.098-3.72C618.381,423.645,619.133,422.469,619.003,421.371z M591.271,403.583
					c-0.253-0.224-0.503-0.446-0.757-0.67c0.792-1.217,1.581-2.432,2.225-3.422c0.979,0.246,1.643,0.413,2.55,0.641
					C593.801,401.411,592.535,402.497,591.271,403.583z M573.779,463.2c-2.015-0.249-0.309-2.987-2.078-3.225
					c-1.523-0.205-1.723-1.647-2.606-2.655c-0.322,0.654-0.504,1.024-0.812,1.649c-1.427-1.943-3.439-1.073-5.012-0.665
					c-1.484,0.386-1.706-0.51-2.604-1.284c-2.208,0.928-4.537,1.904-6.685,2.805c-1.935-0.037-3.742-0.071-5.335-0.104
					c-1.388,1.843-2.7,3.587-3.765,4.999c-0.923-0.312-1.679-0.852-2.284-0.716c-1.656,0.372-3.249,0.854-4.941,0.2
					c-1.85-0.713-2.987,1.406-4.829,1.023c0,0.895-0.013,1.59,0.008,2.285c0.004,0.128,0.126,0.267,0.22,0.378
					c2.367,2.825,3.069,6.365,4.124,9.738c0.705,2.247,1.37,4.222,4.094,4.989c1.279,0.36,2.585,1.501,3.06,3.173
					c0.868,3.07,2.28,5.781,5.472,7.134c0.329,0.141,0.454,0.821,0.625,1.27c0.36,0.946,0.896,1.538,1.845,2.145
					c2.51,1.604,3.344,4.285,4.09,6.967c0.193,0.051,0.386,0.104,0.578,0.153c0.963,0.241,1.923,0.457,2.884,0.649
					c0.045-0.179,0.085-0.366,0.118-0.58c0.203-1.256,0.316-2.563,0.233-3.879c-0.034-0.535,0.643-1.116,0.925-1.565
					c-0.908-4.505-0.475-8.934,1.056-13.799c1.208-0.479,2.877-0.893,4.261-1.76c1.258-0.788,2.132-2.163,3.314-3.104
					c1.36-1.085,2.872-1.978,4.45-3.042c0.631-1.089-0.701-2.845,0.815-3.795c-0.916-1.481-1.834-2.966-2.543-4.112
					C572.989,466.351,573.385,464.775,573.779,463.2z M524.659,426.877c-0.232-0.734,0.102-1.688,0.301-2.511
					c0.471-1.946,0.617-3.688-1.222-5.183c-0.628-0.511-0.677-1.733-0.896-2.36c-0.12-0.012-0.237-0.022-0.355-0.034
					c-3.575,5.252-6.299,11.193-7.931,17.692c-1.097,4.364-1.638,8.742-1.674,13.061c1.416,1.05,2.767,2.053,4.037,2.996
					c2.88-1.075,2.935-4.828,5.71-6.281c0.509-0.265,0.873-1.857,0.561-2.44c-0.923-1.733,0.219-3.074,0.366-4.781
					c0.869,0.037,1.281,0.056,2.071,0.09C524.686,433.656,525.716,430.223,524.659,426.877z"/>
			</g>
		</g>
		<path style="fill:#0F254C;" d="M571.665,382.556c-1.36,0-2.469,1.107-2.469,2.469c0,1.36,1.108,2.468,2.469,2.468
			c34.25,0,62.114,27.865,62.114,62.116c0,34.25-27.864,62.114-62.114,62.114c-19.807,0-37.966-9.118-49.823-25.016
			c-0.463-0.622-1.204-0.992-1.98-0.992c-0.535,0-1.045,0.169-1.474,0.489c-1.091,0.813-1.317,2.363-0.504,3.455
			c12.799,17.159,32.402,27,53.781,27c36.973,0,67.053-30.078,67.053-67.051S608.638,382.556,571.665,382.556z"/>
		<g>
			<rect x="568.905" y="514.19" style="fill:#0F254C;" width="5.52" height="23.185"/>
		</g>
		<path style="fill:#0F254C;" d="M537.752,549.537h69.289v-4.878c0-4.627-3.752-8.38-8.38-8.38h-52.529
			c-4.628,0-8.38,3.753-8.38,8.38V549.537z"/>
	</g>
	<g>
		<path style="fill:#FBC4B2;" d="M457.281,550.979c-0.445-3.172-1.846-7.74-2.583-11.287c-0.74-3.549-7.282-3.29-5.556,1.647
			c1.729,4.938,2.465,8.703,2.465,8.703s-0.165,2.178,2.409,2.353C456.591,552.571,457.388,551.435,457.281,550.979z"/>
		<path style="fill:#FBC4B2;" d="M457.84,509.466c-3.761-0.317-4.028-21.362-3.45-30.297c0.58-8.935,2.708-15.864,7.297-15.479
			c4.592,0.386,5.532,7.572,4.611,16.479S461.602,509.781,457.84,509.466z"/>
		<path style="fill:#FBC4B2;" d="M475.782,548.322c-3.104,1.253-14.505-25.992-16.992-32.153c-2.489-6.161-4.64-12.856-1.162-14.261
			c3.48-1.406,6.582,4.906,9.07,11.065C469.187,519.135,478.886,547.07,475.782,548.322z"/>
		<path style="fill:#FBC4B2;" d="M477.719,551.605c-2.034,1.397-6.243,2.301-6.625,1.59c-0.39-0.698,0.272-2.708,0.855-4.149
			l0.007-0.012c0.174-0.428,0.339-0.808,0.465-1.086c0.151-0.354,0.252-0.56,0.252-0.56s-6.741-26.632-5.493-26.969
			c1.353-0.367,10.371,26.063,10.371,26.063s0.045,0.166,0.12,0.403l0.104,0.34l0.687,2.293
			C478.547,549.797,479.211,550.6,477.719,551.605z"/>
		<linearGradient id="SVGID_40_" gradientUnits="userSpaceOnUse" x1="472.9512" y1="547.6416" x2="475.8691" y2="552.6957">
			<stop  offset="0" style="stop-color:#0A4A79"/>
			<stop  offset="1" style="stop-color:#0F254C"/>
		</linearGradient>
		<path style="fill:url(#SVGID_40_);" d="M477.719,551.605c-2.034,1.397-6.243,2.301-6.625,1.59
			c-0.39-0.698,0.272-2.708,0.855-4.149l0.007-0.012c0.174-0.428,0.339-0.808,0.465-1.086c0.128,0.267,0.325,0.659,0.474,1.01
			c0.267,0.608,0.613,0.615,1.855-0.2c0.874-0.57,2.246-1.188,3.024-1.532c0,0,0.804,1.686,1.023,2.267
			C478.901,549.764,479.211,550.6,477.719,551.605z"/>
		<g>
			<path style="fill:#FBC4B2;" d="M475.88,451.968c-2.512,1.045-9.929-12.977-12.635-19.16c-2.705-6.186-3.732-11.542-0.667-12.815
				c3.064-1.275,6.14,3.229,8.618,9.508S478.39,450.924,475.88,451.968z"/>
			<g>
				<path style="fill:#FBC4B2;" d="M461.705,477.861c-2.192-1.005,4.597-17.41,6.684-21.964c2.087-4.555,4.626-9.209,7.083-8.081
					c2.459,1.126,0.592,6.086-1.495,10.641C471.891,463.012,463.897,478.866,461.705,477.861z"/>
				<path style="fill:#FBC4B2;" d="M463.512,473.638c2.67,0.991,0.387,5.501-0.449,7.013c-1.36,2.459-5.16,3.676-6.124,3.162
					c-0.962-0.515,2.537-5.852,2.419-6.156c-0.12-0.307-1.716,2.736-2.569,2.158c-0.853-0.578,1.266-4.181,2.653-5.285
					C460.828,473.424,461.838,473.016,463.512,473.638z"/>
			</g>
		</g>
		<path style="fill:#FBC4B2;" d="M439.898,510.584c-3.688-0.806-1.205-21.706,0.535-30.488c1.742-8.782,4.756-15.373,9.257-14.392
			c4.501,0.982,4.494,8.23,2.42,16.939C450.035,491.354,443.584,511.389,439.898,510.584z"/>
		<path style="fill:#FBC4B2;" d="M455.029,550.414c-3.192,1.002-12.914-26.927-14.901-33.267c-1.988-6.34-3.598-13.187-0.018-14.31
			c3.58-1.122,6.168,5.416,8.155,11.756C450.254,520.936,458.222,549.414,455.029,550.414z"/>
		<linearGradient id="SVGID_41_" gradientUnits="userSpaceOnUse" x1="450.3301" y1="550.5264" x2="453.7729" y2="556.4896">
			<stop  offset="0" style="stop-color:#0A4A79"/>
			<stop  offset="1" style="stop-color:#0F254C"/>
		</linearGradient>
		<path style="fill:url(#SVGID_41_);" d="M457.281,550.979l0.017,3.142c0.002,0.315-0.254,0.574-0.569,0.575l-10.109,0.053
			c-0.888,0.005-1.269-1.114-0.563-1.647c1.466-1.098,3.813-2.21,5.551-3.059c0.415,0.362,1.045,1.484,1.772,1.616
			C454.101,551.791,457.281,550.979,457.281,550.979z"/>
		<path style="fill:#FBC4B2;" d="M466.39,472.074l-23.409-0.974l-1.026-40.052l1.616-10.059l10.814-3.977l6.963,1.329
			c3.959,0.755,6.775,4.285,6.635,8.312l-2.538,28.347L466.39,472.074z"/>
		<path style="fill:#FBC4B2;" d="M456.993,412.081v8.048c0,0-1.7,1.016-5.679,1.016c-2.146,0-2.627-1.016-2.627-1.016v-2.975
			L456.993,412.081z"/>
		<path style="fill:#FBC4B2;" d="M457.932,406.072c-0.019,0.292-0.028,0.563-0.048,0.827c0,0.095,0.011,0.188,0.011,0.292
			c0.197,4.776-2.869,9.894-7.486,10.589c0,0-0.038,0.009-0.104,0.019c-0.037,0-0.095,0.01-0.16,0.01
			c-0.987,0.122-4.561,0.414-5.868-1.025c-1.533-1.693-2.896-4.795-2.896-6.916c0-2.12,0.385-2.621,0.385-3.479
			c0-0.666-0.358-2.757-0.364-3.662c-0.031-4.264,2.839-8.495,7.936-8.495C456.981,394.231,458.147,400.937,457.932,406.072z"/>
		<path style="fill:#2DBCAE;" d="M448.689,419.856"/>
		<linearGradient id="SVGID_42_" gradientUnits="userSpaceOnUse" x1="442.582" y1="420.8203" x2="466.2134" y2="461.751">
			<stop  offset="0" style="stop-color:#FDEF3B"/>
			<stop  offset="0.2513" style="stop-color:#FFD045"/>
			<stop  offset="1" style="stop-color:#F78F47"/>
		</linearGradient>
		<path style="fill:url(#SVGID_42_);" d="M442.839,420.723c-1.627,1.509-2.892,4.15-3.199,9.552
			c-0.085,1.51-1.203,5.653,0.822,10.704c3.569,8.901,1.382,19.943,1.382,19.943l24.256,0.896c0,0,0.512-16.263,1.34-21.449
			c2.501-15.654-0.019-20.692-4.381-21.915C456.526,416.621,444.466,419.213,442.839,420.723z"/>
		<path style="fill:#FBC4B2;" d="M424.594,447.05c-2.047-1.755,7.049-14.588,11.313-19.747s8.546-8.462,11.046-6.319
			c2.497,2.143-0.114,6.878-4.564,11.879C437.937,437.862,426.641,448.806,424.594,447.05z"/>
		<g>
			<path style="fill:#FBC4B2;" d="M402.125,424.585c1.577-1.798,15.236,9.312,18.97,12.588c3.735,3.274,7.436,7.009,5.668,9.023
				c-1.768,2.016-5.951-1.166-9.687-4.442C413.343,438.479,400.549,426.383,402.125,424.585z"/>
			<path style="fill:#FBC4B2;" d="M397.272,419.154c0.627-0.7,4.038,2.651,5.136,3.518c0.166,0.13,0.282,0.208,0.324,0.202
				c0.045-0.005,0.04-0.063,0.012-0.149c-0.178-0.535-1.522-2.411-0.87-3.003c0.719-0.65,3.403,1.897,4.313,3.525
				c0.049,0.091,0.117,0.188,0.156,0.271c0.737,1.597,0.894,2.665-0.098,4.131c-1.583,2.34-5.393-0.921-6.65-2.08
				c-1.062-0.978-1.831-2.44-2.235-3.741C396.984,420.615,396.925,419.543,397.272,419.154z"/>
		</g>
		<linearGradient id="SVGID_43_" gradientUnits="userSpaceOnUse" x1="442.0996" y1="394.915" x2="460.8643" y2="427.4164">
			<stop  offset="0" style="stop-color:#0A4A79"/>
			<stop  offset="1" style="stop-color:#0F254C"/>
		</linearGradient>
		<path style="fill:url(#SVGID_43_);" d="M439.961,400.085c0.033,0.249,0.083,0.507,0.147,0.771c0.525,2.137,2.199,3.38,2.029,5.71
			c-0.161,2.22,0.164,4.082,1.315,6.036c2.58,4.369-0.983,3.401-0.268,10.106c0.352,3.295,3.479,4.65,9.655,4.561
			c6.176-0.089,12.973-0.179,12.792-4.83c-0.069-1.807-0.715-3.132-1.698-4.621c-1.187-1.796-2.203-3.303-1.558-5.516
			c0.269-0.92,0.651-1.821,0.709-2.777c0.141-2.336-1.534-3.088-2.835-4.602c-1.396-1.627-0.576-4.376-1.046-6.336
			c-1.52-6.371-8.122-7.119-13.485-5.393C442.438,394.252,439.456,396.322,439.961,400.085z"/>
		<linearGradient id="SVGID_44_" gradientUnits="userSpaceOnUse" x1="436.4736" y1="465.1709" x2="489.8137" y2="518.511">
			<stop  offset="0" style="stop-color:#00ADE5"/>
			<stop  offset="1" style="stop-color:#1E4394"/>
		</linearGradient>
		<path style="fill:url(#SVGID_44_);" d="M466.345,455.471c-0.203,5.09,3.636,11.765,4.23,16.833
			c1.189,10.156-5.835,29.179-5.835,30.407c0,1.23,6.573,17.731,9.122,27.793c0,0-1.431,2.057-8.317,3.31
			c0,0-10.563-22.986-11.541-28.173c-0.981-5.188,0.221-49.221,0.221-49.221L466.345,455.471z"/>
		<linearGradient id="SVGID_45_" gradientUnits="userSpaceOnUse" x1="428.2402" y1="473.4063" x2="481.5795" y2="526.7455">
			<stop  offset="0" style="stop-color:#00ADE5"/>
			<stop  offset="1" style="stop-color:#1E4394"/>
		</linearGradient>
		<path style="fill:url(#SVGID_45_);" d="M455.679,456.307h-13.283c0,0-3.056,12.038-5.023,28.316
			c-1.967,16.277-1.341,21.106-0.983,23.7s9.331,27.1,9.331,27.1s4.58,0.626,9.251-2.146c0,0-3.021-13.952-5.614-20.392
			s-2.877-7.871-2.877-7.871s7.468-15.918,9.331-27.277C457.675,466.378,455.679,456.307,455.679,456.307z"/>
	</g>
	<g>
		<path style="fill:#FBC4B2;" d="M230.21,413.196c0.939-4.158-21.642-11.609-31.464-14.025c-9.823-2.417-18.011-2.482-19.158,2.595
			c-1.147,5.076,6.275,8.535,16.184,10.575C205.679,414.38,229.271,417.355,230.21,413.196z"/>
		<path style="fill:#FBC4B2;" d="M226.164,424.297c1.314-4.056-20.493-13.535-30.054-16.837c-9.562-3.303-17.71-4.115-19.315,0.836
			s5.472,9.072,15.152,12.008C201.627,423.238,224.849,428.354,226.164,424.297z"/>
		<g>
			<path style="fill:#FBC4B2;" d="M224.924,465.956l-0.18,3.785c0,0.536,0.438,0.975,0.979,0.975h10.195
				c0.927,0,1.32-1.174,0.58-1.728c-1.54-1.141-3.692-2.487-5.684-2.849c-0.175-0.033-1.627-31.973-3.166-31.989
				C226.25,434.136,224.924,465.956,224.924,465.956z"/>
			<path style="fill:#FBC4B2;" d="M227.44,467.335c3.78,0,4.818-33.394,4.818-40.9s-0.58-15.432-4.818-15.432
				c-4.239,0-4.819,7.925-4.819,15.432S223.66,467.335,227.44,467.335z"/>
			<linearGradient id="SVGID_46_" gradientUnits="userSpaceOnUse" x1="228.2324" y1="464.6445" x2="233.1387" y2="473.1424">
				<stop  offset="0" style="stop-color:#0075BE"/>
				<stop  offset="1" style="stop-color:#1E4394"/>
			</linearGradient>
			<path style="fill:url(#SVGID_46_);" d="M224.744,466.657v3.549c0,0.357,0.29,0.646,0.646,0.646h11.421
				c1.002,0,1.426-1.266,0.626-1.865c-1.663-1.231-4.321-2.475-6.289-3.422c-0.466,0.41-1.171,1.683-1.993,1.836
				C228.342,467.554,224.744,466.657,224.744,466.657z"/>
		</g>
		<g>
			<path style="fill:#FBC4B2;" d="M216.13,476.116c0,0,0,0.187,0,0.47v3.101c0,0.328,0.764,1.724,1.484,2.025
				c2.567,1.093,7.497,0.444,7.692-0.444c0.196-0.888-1.181-2.833-2.282-4.219c0,0-0.009,0-0.009-0.01
				c-0.71-0.889-1.306-1.545-1.306-1.545s-1.386-31.005-2.842-30.96C217.276,444.588,216.13,476.116,216.13,476.116z"/>
			<path style="fill:#FBC4B2;" d="M218.642,477.521c3.765,0.345,7.223-32.844,7.908-40.32c0.684-7.475,0.83-15.419-3.391-15.805
				c-4.221-0.387-5.521,7.45-6.206,14.927C216.269,443.798,214.877,477.175,218.642,477.521z"/>
			<linearGradient id="SVGID_47_" gradientUnits="userSpaceOnUse" x1="218.0098" y1="475.502" x2="222.3989" y2="483.1042">
				<stop  offset="0" style="stop-color:#0075BE"/>
				<stop  offset="1" style="stop-color:#1E4394"/>
			</linearGradient>
			<path style="fill:url(#SVGID_47_);" d="M216.13,476.586v3.101c0,0.328,0.764,1.724,1.484,2.025
				c2.567,1.093,7.497,0.444,7.692-0.444c0.196-0.888-1.181-2.833-2.282-4.219c0,0-0.009,0-0.009-0.01
				c-0.532-0.453-3.242-0.204-3.695,0.018c-0.462,0.223-1.519,0.871-1.742,0.835C217.347,477.856,216.13,476.586,216.13,476.586z"/>
		</g>
		<g>
			<g>
				<path style="fill:#FBC4B2;" d="M245.755,369.459c-1.502-2.273-18.637,8.156-23.358,11.276c-4.722,3.121-9.476,6.764-7.792,9.312
					c1.683,2.548,6.898-0.397,11.62-3.52C230.946,383.408,247.256,371.73,245.755,369.459z"/>
				<path style="fill:#FBC4B2;" d="M242.182,371.247c0.924,2.71,5.519,0.536,7.06-0.264c2.509-1.301,2.921-5.214,2.43-6.194
					c-0.49-0.98-4.477,2.85-4.781,2.722c-0.304-0.128,2.238-1.982,1.68-2.855c-0.558-0.872-4.235,1.161-5.383,2.524
					C242.04,368.544,241.602,369.549,242.182,371.247z"/>
				<path style="fill:#FBC4B2;" d="M216.606,391.766c2.932-0.827-0.297-18.301-2.218-25.616c-1.92-7.313-4.741-12.734-8.321-11.725
					c-3.579,1.011-3.149,7.106-0.963,14.346S213.675,392.593,216.606,391.766z"/>
			</g>
			<linearGradient id="SVGID_48_" gradientUnits="userSpaceOnUse" x1="204.2773" y1="342.5034" x2="229.9854" y2="387.031">
				<stop  offset="0" style="stop-color:#FDEF3B"/>
				<stop  offset="1" style="stop-color:#FBB04A"/>
			</linearGradient>
			<path style="fill:url(#SVGID_48_);" d="M198.473,348.849l0.721,5.553l3.47-1.652l1.049-0.527c0,0,4.558,1.617,5.65,2.769
				c5.591,5.896,9.616,26.365,9.899,26.081c0,0,14.208-8.859,15.595-8.898c1.407-0.038,3.207-1.099,3.207-1.099l1.572-0.662
				l2.704,4.057l-2.043,1.729c0,0-0.157,1.289-2.013,2.894c-2.497,2.158-15.063,14.737-21.192,13.236
				c-6.128-1.501-11.13-19.619-11.13-19.619l-4.842-13.018l-11.55-8.698L198.473,348.849z"/>
			<path style="fill:#FBC4B2;" d="M173.162,408.352l24.747-4.049l6.947-35.492l3.305-13.002l-10.83-7.776l-7.974-0.753
				c-4.534-0.428-8.702,2.513-9.817,6.928c0,0-5.551,23.54-6.178,31.555C172.391,398.169,173.162,408.352,173.162,408.352z"/>
			<path style="fill:#0C1316;" d="M198.349,398.673c0,0,17.126,4.306,25.706,8.548c8.579,4.242,9.239,7.354,9.521,16.216
				c0.283,8.862-1.697,41.294-1.697,41.294s-2.11,1.733-7.984,1.244c0,0-3.114-33.437-3.168-40.833
				c-0.055-7.396-36.647-12.453-36.647-12.453s-4.997-8.861,0.754-11.784C190.586,397.981,198.349,398.673,198.349,398.673z"/>
			<path style="fill:#0F254C;" d="M173.711,410.106c0.283,4.468,12.633,12.687,24.889,15.035c12.256,2.35,15.933,2.632,16.121,3.104
				c0.189,0.471,0,47.422,0,47.422s3.922,2.356,7.9-0.943c0,0,4.904-34.128,4.819-43.745c-0.085-9.617-2.7-11.219-5.918-12.821
				c-3.218-1.603-29.836-15.524-29.836-15.524L173.711,410.106z"/>
			<g>
				<path style="fill:#B4CED7;" d="M206.059,405.368c0,0,2.097,0.362,5.097,0.913l-2.578,6.984l-21.505-4.824l-0.028-0.002
					C187.035,408.456,206.059,405.368,206.059,405.368z"/>
				<path style="fill:#D9E9F0;" d="M233.186,410.242l-24.608,3.023l8.624-23.262c0.313,0.017,24.084-0.535,24.084-0.535
					L233.186,410.242z"/>
				<polygon style="fill:#D0E3E9;" points="233.186,410.242 233.106,411.838 228.963,412.401 213.081,414.635 208.476,415.29 
					208.578,413.266 				"/>
				<path style="fill:#BFD5DF;" d="M208.578,413.266l-0.102,2.024l-21.303-5.294c-0.01-0.01-0.092-1.546-0.101-1.555
					L208.578,413.266z"/>
				<polygon style="fill:#BFD5DF;" points="241.285,389.469 240.278,389.027 216.531,389.628 207.836,413.1 208.578,413.266 
					217.201,390.004 				"/>
			</g>
			<g>
				<path style="fill:#FBC4B2;" d="M196.186,341.399l-2.536,6.938c0,0,1.525,3.432,5.843,4.687c2.328,0.676,3.171-0.274,3.171-0.274
					l0.938-3.229L196.186,341.399z"/>
				<g>
					<path style="fill:#F9B29D;" d="M208.753,336.509c0.818,0.501,0.31,3.562,0.154,3.503c-0.156-0.06-0.03-2.575-0.707-3.164
						C207.524,336.26,208.753,336.509,208.753,336.509z"/>
					<path style="fill:#F9B29D;" d="M212.042,337.583c-0.66,0.454-0.908,2.733-0.947,2.929c-0.04,0.196,1.004-2.549,1.004-2.549
						L212.042,337.583z"/>
					<g>
						<path style="fill:#403E41;" d="M204.969,335.535l-0.102,0.348c0,0,3.722,1.094,3.755,1.075
							c0.034-0.019,0.231-0.292,0.13-0.449C208.221,335.685,204.969,335.535,204.969,335.535z"/>
						<path style="fill:#403E41;" d="M214.716,338.352l-0.108,0.375c0,0-2.604-0.771-2.614-0.804c-0.037-0.011,0-0.361,0.13-0.447
							C212.804,337.02,214.716,338.352,214.716,338.352z"/>
						<circle style="fill:#403E41;" cx="206.43" cy="338.479" r="0.781"/>
						<path style="fill:#403E41;" d="M205.05,337.425c0.45-0.095,1.062-0.161,1.681,0.019c0.619,0.18,1.1,0.563,1.429,0.885
							L205.05,337.425z"/>
						<circle style="fill:#403E41;" cx="212.605" cy="340.272" r="0.781"/>
						<path style="fill:#403E41;" d="M211.695,339.354c0.333-0.128,0.779-0.243,1.211-0.117c0.432,0.126,0.748,0.461,0.959,0.748
							L211.695,339.354z"/>
					</g>
					<path style="fill:#ECBE95;" d="M209.287,343.408c-0.75-0.218-1.34-0.457-1.4-0.252c-0.059,0.206,0.478,0.628,1.228,0.845
						c0.75,0.219,1.429,0.149,1.488-0.056C210.664,343.74,210.037,343.627,209.287,343.408z"/>
					<path style="fill:#F9B29D;" d="M208.395,346.479c-0.55-0.159-0.983-0.336-1.027-0.185c-0.043,0.15,0.303,0.623,0.853,0.783
						s1.096-0.055,1.14-0.205C209.404,346.723,208.945,346.64,208.395,346.479z"/>
					<g>
						<path style="fill:#F9B29D;" d="M211.278,345.997c0.074,0.021,0.129,0.091,0.128,0.174c0,0.099-0.081,0.177-0.18,0.177
							c-0.057,0-1.407-0.011-2.661-0.376c-1.254-0.363-2.439-1.088-2.49-1.119c-0.084-0.052-0.11-0.162-0.059-0.246
							c0.052-0.084,0.16-0.11,0.246-0.059c0.012,0.007,1.196,0.731,2.402,1.082s2.549,0.361,2.563,0.361
							C211.245,345.991,211.262,345.993,211.278,345.997z"/>
					</g>
				</g>
				<path style="fill:#FBC4B2;" d="M197.063,334.584c-0.072,0.322-0.147,0.622-0.209,0.912c-0.03,0.103-0.07,0.201-0.102,0.314
					c-1.72,5.121-0.006,11.638,4.785,13.847c0,0,0.038,0.023,0.106,0.054c0.041,0.012,0.099,0.04,0.17,0.062
					c1.033,0.443,4.818,1.885,6.69,0.736c2.196-1.354,4.653-4.29,5.321-6.591c0.669-2.3,0.409-2.967,0.678-3.896
					c0.211-0.724,1.258-2.876,1.551-3.858c1.376-4.617-0.403-10.111-5.934-11.717C201.825,322.038,198.446,328.945,197.063,334.584z
					"/>
				<path style="fill:#F9B29D;" d="M204.573,350.679c-2.546-0.612-5.181-4.04-5.781-5.425s-0.251-4.383-0.251-4.383
					s-0.769-0.113-1.116-1.046c0,0-0.294,1.271,0.071,1.838c0.366,0.566,0.658,0.75,0.675,1.086c0.018,0.336-0.55,4.436,1.212,6.146
					C201.145,350.605,204.573,350.679,204.573,350.679z"/>
				<linearGradient id="SVGID_49_" gradientUnits="userSpaceOnUse" x1="207.2495" y1="321.4067" x2="207.2495" y2="339.352">
					<stop  offset="0" style="stop-color:#0A4A79"/>
					<stop  offset="1" style="stop-color:#0F254C"/>
				</linearGradient>
				<path style="fill:url(#SVGID_49_);" d="M214.898,330.33c0,0-2.404,1.151-5.653,3.012c-3.249,1.86-5.705,1.927-5.705,1.927
					l-3.364,2.45l-1.551-0.761l-2.44,4.441c0,0-0.484-3.607-0.086-7.526c0.398-3.918,2.679-10.722,7.196-11.918
					c4.517-1.195,13.33,4.785,14.26,6.386c0.93,1.602,2.332,4.196-1.79,8.617c0,0,0.883-2.332,0.55-4.325
					C215.982,330.641,214.898,330.33,214.898,330.33z"/>
				<g>
					<path style="fill:#FBC4B2;" d="M199.473,335.359c-0.613-0.346-2.008-1.337-2.394,1.051c-0.664,4.126,1.743,4.555,1.743,4.555
						c0.025-0.605,0.049-1.462,0.145-2.438c0.743-0.195,0.075-0.924,0.18-1.396c-0.013-0.089,0.017-0.191,0.047-0.294
						C199.259,336.355,199.358,335.883,199.473,335.359z"/>
					<path style="fill:#F9B29D;" d="M199.194,336.838c0,0-0.524-0.919-1.157-0.797c-0.634,0.122-0.612,1.512-0.397,2.397
						c0.215,0.886,0.68,1.091,0.826,0.906c0.147-0.186-0.694-0.914-0.247-1.173c0.448-0.259,0.818-0.219,0.848-0.437
						C199.094,337.517,199.194,336.838,199.194,336.838z"/>
					<linearGradient id="SVGID_50_" gradientUnits="userSpaceOnUse" x1="200.1768" y1="321.4063" x2="200.1768" y2="339.3517">
						<stop  offset="0" style="stop-color:#0A4A79"/>
						<stop  offset="1" style="stop-color:#0F254C"/>
					</linearGradient>
					<path style="fill:url(#SVGID_50_);" d="M201.444,334.112c-0.461,1.032-0.737,2.166-1.039,3.252
						c-0.168,0.604-0.28,1.256-0.513,1.835c-0.119,0.296-0.323,1.331-0.704,1.379c-0.577,0.072-0.089-2.881-0.055-3.255
						c0.02-0.211,0.068-2.472,0.23-2.525C199.365,334.798,201.444,334.112,201.444,334.112z"/>
				</g>
			</g>
			<linearGradient id="SVGID_51_" gradientUnits="userSpaceOnUse" x1="173.4287" y1="353.0977" x2="200.625" y2="400.203">
				<stop  offset="0" style="stop-color:#FDEF3B"/>
				<stop  offset="0.2513" style="stop-color:#FFD045"/>
				<stop  offset="1" style="stop-color:#F78F47"/>
			</linearGradient>
			<path style="fill:url(#SVGID_51_);" d="M172.869,410.106c18.528-2.077,28.531-10.859,28.531-10.859s2.035-17.864,3.17-22.64
				c1.135-4.776,5.119-15.058,4.563-18.636c-0.579-3.576-2.935-4.798-4.777-5.44c0,0,0.072-0.646-1.278-1.224l-0.458,1.609
				l-2.977,2.549l-0.943-5.247l-0.236-1.371l-0.685,0.984c-1.584-0.604-3.298-1.669-4.95-2.224
				c-2.793-0.938-5.409-1.228-6.917-1.268c-4.412-0.106-8.075,11.311-11.438,28.167
				C171.112,391.366,172.869,410.106,172.869,410.106z"/>
			<linearGradient id="SVGID_52_" gradientUnits="userSpaceOnUse" x1="202.877" y1="350.7896" x2="203.729" y2="352.2654">
				<stop  offset="0" style="stop-color:#FDEF3B"/>
				<stop  offset="1" style="stop-color:#FBB04A"/>
			</linearGradient>
			<polygon style="fill:url(#SVGID_52_);" points="204.483,350.993 202.612,352.91 202.654,352.765 203.298,350.547 
				203.796,350.617 			"/>
			<linearGradient id="SVGID_53_" gradientUnits="userSpaceOnUse" x1="194.3799" y1="346.0264" x2="197.4614" y2="351.3638">
				<stop  offset="0" style="stop-color:#FDEF3B"/>
				<stop  offset="1" style="stop-color:#FBB04A"/>
			</linearGradient>
			<path style="fill:url(#SVGID_53_);" d="M198.473,348.849l-2.252,3.231c-1.428-2.024-3.39-4.472-3.39-4.472l2.107-1.904
				L198.473,348.849z"/>
			<polygon style="fill:#F2B01D;" points="204.388,352.241 204.214,354.401 202.598,352.961 202.612,352.91 204.483,350.993 			"/>
			<g>
				<path style="fill:#FBC4B2;" d="M175.672,384.537c2.941,0.889,9.687-15.714,12.026-22.972c2.34-7.259,2.887-13.396-0.703-14.482
					c-3.59-1.084-6.536,4.328-8.608,11.667C176.313,366.09,172.732,383.648,175.672,384.537z"/>
				<path style="fill:#FBC4B2;" d="M203.57,404.619c1.751-2.086-13.122-15.545-17.457-19.184c-4.335-3.64-9.18-7.16-11.143-4.821
					c-1.963,2.34,2.344,6.501,6.679,10.139C185.985,394.392,201.819,406.706,203.57,404.619z"/>
				<path style="fill:#FBC4B2;" d="M199.682,401.182c-2.246,2.306,2.27,5.805,3.853,6.942c2.58,1.852,6.71,0.275,7.444-0.714
					c0.733-0.992-5.133-3.038-5.159-3.407c-0.026-0.369,3.125,1.233,3.715,0.23c0.591-1.002-3.315-3.653-5.266-4.11
					C202.318,399.666,201.089,399.737,199.682,401.182z"/>
			</g>
			<linearGradient id="SVGID_54_" gradientUnits="userSpaceOnUse" x1="173.6992" y1="352.6973" x2="202.0596" y2="401.8188">
				<stop  offset="0" style="stop-color:#FDEF3B"/>
				<stop  offset="1" style="stop-color:#FBB04A"/>
			</linearGradient>
			<path style="fill:url(#SVGID_54_);" d="M187.617,346.687c-2.302-0.901-5.751-0.425-8.391,6.579
				c-2.64,7.005-6.345,26.143-6.354,29.443c-0.009,3.299,12.821,14.456,16.227,16.844c3.406,2.389,4.788,2.64,5.542,2.766
				c0.754,0.125,3.833,1.571,3.833,1.571s2.824-2.702,2.921-4.651c0,0-2.365-2.199-2.768-2.954c-0.403-0.755-3.482-4.792-7.128-7.77
				c-3.646-2.979-8.61-7.755-8.862-8.132c-0.251-0.377,6.726-17.096,7.542-21.37C190.995,354.739,191.812,348.328,187.617,346.687z"
				/>
		</g>
	</g>
	<g>
		<g>
			<g>
				<linearGradient id="SVGID_55_" gradientUnits="userSpaceOnUse" x1="322.3354" y1="516.2852" x2="326.7861" y2="523.994">
					<stop  offset="0" style="stop-color:#00B3CE"/>
					<stop  offset="0.1589" style="stop-color:#00AFD3"/>
					<stop  offset="0.433" style="stop-color:#00ACDB"/>
					<stop  offset="0.7119" style="stop-color:#00AAE0"/>
					<stop  offset="1" style="stop-color:#00A9E3"/>
				</linearGradient>
				<path style="fill:url(#SVGID_55_);" d="M323.85,515.611c0.001,0.004,0.49,1.456,1.008,3.28c0.518,1.826,1.066,4.008,1.183,5.533
					l-0.872,0.065c-0.103-1.39-0.64-3.563-1.151-5.36c-0.256-0.9-0.505-1.712-0.69-2.297s-0.306-0.942-0.306-0.943L323.85,515.611
					L323.85,515.611z"/>
				<linearGradient id="SVGID_56_" gradientUnits="userSpaceOnUse" x1="329.272" y1="517.1123" x2="332.9575" y2="523.4958">
					<stop  offset="0" style="stop-color:#00B3CE"/>
					<stop  offset="0.1589" style="stop-color:#00AFD3"/>
					<stop  offset="0.433" style="stop-color:#00ACDB"/>
					<stop  offset="0.7119" style="stop-color:#00AAE0"/>
					<stop  offset="1" style="stop-color:#00A9E3"/>
				</linearGradient>
				<path style="fill:url(#SVGID_56_);" d="M331.667,516.332c0,0-0.017,0.146-0.044,0.415c-0.079,0.805-0.237,2.679-0.237,4.715
					c0,0.952,0.035,1.939,0.128,2.867l-0.871,0.088c-0.097-0.968-0.132-1.981-0.132-2.955c0.001-2.774,0.286-5.222,0.288-5.231
					L331.667,516.332L331.667,516.332z"/>
				<linearGradient id="SVGID_57_" gradientUnits="userSpaceOnUse" x1="334.6533" y1="521.9316" x2="335.5913" y2="523.5563">
					<stop  offset="0" style="stop-color:#00B3CE"/>
					<stop  offset="0.1589" style="stop-color:#00AFD3"/>
					<stop  offset="0.433" style="stop-color:#00ACDB"/>
					<stop  offset="0.7119" style="stop-color:#00AAE0"/>
					<stop  offset="1" style="stop-color:#00A9E3"/>
				</linearGradient>
				<path style="fill:url(#SVGID_57_);" d="M336.002,522.116l-0.004,0.004c-0.029,0.033-0.21,0.243-0.374,0.542
					c-0.167,0.3-0.311,0.684-0.31,1.053h-0.874c0.002-0.626,0.237-1.163,0.459-1.55c0.225-0.385,0.443-0.625,0.457-0.641
					L336.002,522.116L336.002,522.116z"/>
			</g>
			<linearGradient id="SVGID_58_" gradientUnits="userSpaceOnUse" x1="304.8071" y1="483.4492" x2="324.3633" y2="517.3215">
				<stop  offset="0" style="stop-color:#00B3CE"/>
				<stop  offset="0.1589" style="stop-color:#00AFD3"/>
				<stop  offset="0.433" style="stop-color:#00ACDB"/>
				<stop  offset="0.7119" style="stop-color:#00AAE0"/>
				<stop  offset="1" style="stop-color:#00A9E3"/>
			</linearGradient>
			<path style="fill:url(#SVGID_58_);" d="M324.892,516.5c0,0,4.482-5.686-2.405-17.494c-6.889-11.808-21.102-14.651-21.758-13.12
				c-0.656,1.53,7.216,4.481,9.402,13.558c2.188,9.075,2.479,14.104,5.212,16.838C318.076,519.014,321.793,520.107,324.892,516.5z"
				/>
			<linearGradient id="SVGID_59_" gradientUnits="userSpaceOnUse" x1="346.0488" y1="506.8818" x2="353.9521" y2="520.5708">
				<stop  offset="0" style="stop-color:#00B3CE"/>
				<stop  offset="0.1589" style="stop-color:#00AFD3"/>
				<stop  offset="0.433" style="stop-color:#00ACDB"/>
				<stop  offset="0.7119" style="stop-color:#00AAE0"/>
				<stop  offset="1" style="stop-color:#00A9E3"/>
			</linearGradient>
			<path style="fill:url(#SVGID_59_);" d="M334.12,517.645c0,0,0.492-6.395,12.066-9.954c11.574-3.558,22.541,3.121,22.049,4.512
				c-0.491,1.392-7.392-1.411-14.263,3.188s-10.079,7.702-13.501,7.842C337.051,523.374,333.973,521.854,334.12,517.645z"/>
			<linearGradient id="SVGID_60_" gradientUnits="userSpaceOnUse" x1="335.5576" y1="484.7363" x2="349.0176" y2="508.0497">
				<stop  offset="0" style="stop-color:#00B3CE"/>
				<stop  offset="0.1589" style="stop-color:#00AFD3"/>
				<stop  offset="0.433" style="stop-color:#00ACDB"/>
				<stop  offset="0.7119" style="stop-color:#00AAE0"/>
				<stop  offset="1" style="stop-color:#00A9E3"/>
			</linearGradient>
			<path style="fill:url(#SVGID_60_);" d="M327.157,513.456c0,0-7.721-8.292,1.232-21.558c8.954-13.266,28.698-14.19,29.347-12.353
				c0.649,1.839-7.727,5.309-10.978,15.742c-3.251,10.435-5.026,15.662-8.43,18.646
				C334.927,516.917,330.499,517.908,327.157,513.456z"/>
			<g>
				<path style="fill:#D2D5D5;" d="M323.069,514.746c0.038,0,0.077-0.006,0.116-0.018c0.233-0.063,0.37-0.304,0.306-0.537
					c-0.2-0.722-5.002-17.763-13.883-24.271c-0.193-0.144-0.467-0.101-0.611,0.095c-0.143,0.195-0.101,0.468,0.094,0.61
					c8.634,6.329,13.508,23.624,13.556,23.799C322.701,514.618,322.878,514.746,323.069,514.746z"/>
			</g>
			<g>
				<path style="fill:#D2D5D5;" d="M332.012,512.586c0.19,0,0.375-0.137,0.438-0.326c0.024-0.074,0.028-0.12,0.052-0.475
					c0.4-5.993,2.953-25.876,18.996-30.073c0.234-0.062,0.374-0.3,0.313-0.533c-0.062-0.234-0.302-0.373-0.534-0.313
					c-16.609,4.345-19.238,24.721-19.647,30.862c-0.012,0.163-0.018,0.271-0.023,0.314c-0.077,0.229,0.055,0.447,0.283,0.523
					C331.93,512.579,331.971,512.586,332.012,512.586z"/>
			</g>
			<g>
				<path style="fill:#D2D5D5;" d="M337.415,520.549c0.198,0,0.394-0.177,1.032-0.756c7.194-6.51,14.127-9.593,20.614-9.172
					c0.242,0.019,0.449-0.167,0.466-0.408c0.016-0.241-0.167-0.447-0.408-0.465c-6.735-0.447-13.882,2.723-21.259,9.397
					c-0.256,0.23-0.519,0.47-0.622,0.548c-0.119,0.045-0.218,0.142-0.261,0.271c-0.076,0.229,0.048,0.477,0.276,0.554
					C337.313,520.538,337.363,520.549,337.415,520.549z"/>
			</g>
		</g>
		<linearGradient id="SVGID_61_" gradientUnits="userSpaceOnUse" x1="322.8613" y1="518.3877" x2="341.5098" y2="550.6877">
			<stop  offset="0" style="stop-color:#DFEAEE"/>
			<stop  offset="0.9947" style="stop-color:#AAC7D4"/>
		</linearGradient>
		<path style="fill:url(#SVGID_61_);" d="M319.52,550.175h22.552c0.568,0,1.061-0.393,1.188-0.945l5.558-24.02
			c0.178-0.765-0.402-1.494-1.188-1.494h-33.67c-0.783,0-1.364,0.729-1.187,1.494l5.558,24.02
			C318.459,549.782,318.952,550.175,319.52,550.175z"/>
	</g>
</g>
</svg>
