<svg xmlns="http://www.w3.org/2000/svg" xmlns:xlink="http://www.w3.org/1999/xlink" width="250" height="68" viewBox="0 0 250 68"><defs><path id="hf9ta" d="M605.83 282.59a28.12 28.12 0 0 0-4.33 5.76l-1.82-.95a2.4 2.4 0 0 0-2.59-1.84 2.35 2.35 0 0 0-2.05 2.65 2.33 2.33 0 0 0 3.34 1.84l1.79.95c-.98 2.2-1.7 4.5-2.1 6.88l2.94.54c.9-5.17 3.35-9.9 7-13.72z"/><path id="hf9tb" d="M627.31 273.51c-.67 0-1.33.05-2 .05l-.27-2.47a2.84 2.84 0 0 0 1.02-2.57 2.78 2.78 0 0 0-3.11-2.47 2.8 2.8 0 0 0-2.46 3.15 2.8 2.8 0 0 0 1.6 2.2l.28 2.47c-2.81.45-5.49 1.3-8.07 2.57l1.3 2.7a26.95 26.95 0 0 1 17.5-2.03l.63-2.92a30.8 30.8 0 0 0-6.42-.68z"/><path id="hf9tc" d="M653.16 283.54a2.37 2.37 0 0 0 2.05-2.66 2.36 2.36 0 0 0-2.63-2.07 2.41 2.41 0 0 0-2.1 2.39l-1.64 1.44a29.94 29.94 0 0 0-5.53-4.5l-1.56 2.52a26.67 26.67 0 0 1 10.03 11.55l2.72-1.21a29.35 29.35 0 0 0-3.7-6.12l1.56-1.39c.26.1.53.1.8.05z"/><path id="hf9td" d="M625.17 313.8a76.7 76.7 0 0 1-4.54.13c-3.44 0-6.78-.22-9.72-.72-1.51-.22-3.3-.62-4.99-1.16A24.17 24.17 0 0 0 627 324.37a24.07 24.07 0 0 0 23.3-17.81 40 40 0 0 1-9.62 4.45 60.66 60.66 0 0 1-15.5 2.79z"/><path id="hf9te" d="M637.38 301.61a5.34 5.34 0 0 1-5.3-5.35c0-2.97 2.4-5.35 5.3-5.35 2.93 0 5.29 2.43 5.29 5.35a5.28 5.28 0 0 1-5.3 5.35zm-18.54 3.6c-4.01 0-7.22-3.28-7.22-7.28a7.25 7.25 0 0 1 7.22-7.29c4 0 7.21 3.28 7.21 7.29.05 4-3.2 7.28-7.21 7.28zm8.47-25.72c-13.1 0-23.8 10.52-23.8 23.47 0 1.67.18 3.37.53 5 2.63 1.88 10.61 3.5 20.95 2.87 11.27-.67 20.72-3.78 26.11-8.54 0-.77-.09-1.53-.17-2.3-1.52-11.69-11.64-20.5-23.62-20.5z"/><path id="hf9tf" d="M689.92 286.86c-1.15-.45-3.16-1.21-5.39-.94-2.14.27-3.3 1.35-3.3 3.96v3.41h8.74v6.8h-8.74v21.53h-7.57v-21.54h-5.26v-6.74h5.26v-3.5c0-6.66 3.52-10.98 10.07-10.98 2.5 0 4.55.5 6.24 1.21z"/><path id="hf9tg" d="M708.37 300.03c-.71-.13-1.38-.18-2.05-.18-3.52 0-5.92 2.16-5.92 6.39v15.42h-7.58v-28.33h7.3v3.1c1.8-2.65 4.46-3.86 7.9-3.86 1.6 0 3.3.5 4.27 1.35z"/><path id="hf9th" d="M718.35 304.8h12.45c-.72-3.64-2.86-5.66-6.11-5.66-3.62 0-5.67 2.16-6.34 5.67zm20.01 2.66c0 .85-.04 1.93-.13 2.56H718.3c.8 4.1 3.65 5.9 7.22 5.9 2.45 0 5.08-1 7.08-2.7l4.42 4.9c-3.21 2.96-7.27 4.31-11.95 4.31-8.6 0-14.57-5.89-14.57-14.84 0-8.9 5.8-14.97 14.22-14.97 8.06-.04 13.59 5.98 13.63 14.84z"/><path id="hf9ti" d="M748.3 304.8h12.43c-.71-3.64-2.85-5.66-6.1-5.66-3.57 0-5.67 2.16-6.33 5.67zm20 2.66c0 .85-.04 1.93-.13 2.56h-19.92c.8 4.1 3.65 5.9 7.22 5.9 2.45 0 5.08-1 7.08-2.7l4.42 4.9c-3.21 2.96-7.27 4.31-11.95 4.31-8.6 0-14.57-5.89-14.57-14.84 0-8.9 5.8-14.97 14.22-14.97 8.06-.04 13.59 5.98 13.63 14.84z"/><path id="hf9tj" d="M778.73 307.46c0 4.45 2.94 7.82 7.22 7.82 4.46 0 7.26-3.46 7.26-7.82s-2.76-7.83-7.26-7.83c-4.28.05-7.22 3.38-7.22 7.83zm22.24 0c0 8.5-5.84 14.93-13.6 14.93-3.78 0-6.41-1.49-8.24-3.69v14.66h-7.53v-40.02h7.4v3.15c1.82-2.3 4.5-3.87 8.38-3.87 7.75-.04 13.59 6.34 13.59 14.84z"/><path id="hf9tk" d="M812.12 321.62h-7.58V293.3h7.58zm1.02-37.59c0 2.74-2.1 4.86-4.86 4.86a4.76 4.76 0 0 1-4.81-4.86 4.83 4.83 0 1 1 9.67 0z"/><path id="hf9tl" d="M824.72 303.4l10.57-10.07h9.27l-13.64 13.31 13.68 14.98h-9.31l-10.65-11.47v11.47h-7.58v-42.09h7.58v23.88z"/></defs><g><g transform="translate(-595 -266)"><g><g><use fill="#1273eb" xlink:href="#hf9ta"/></g><g><use fill="#1273eb" xlink:href="#hf9tb"/></g><g><use fill="#1273eb" xlink:href="#hf9tc"/></g><g><use fill="#1273eb" xlink:href="#hf9td"/></g><g><use fill="#1273eb" xlink:href="#hf9te"/></g></g><g><use fill="#1273eb" xlink:href="#hf9tf"/></g><g><use fill="#1273eb" xlink:href="#hf9tg"/></g><g><use fill="#1273eb" xlink:href="#hf9th"/></g><g><use fill="#1273eb" xlink:href="#hf9ti"/></g><g><use fill="#1273eb" xlink:href="#hf9tj"/></g><g><use fill="#1273eb" xlink:href="#hf9tk"/></g><g><use fill="#1273eb" xlink:href="#hf9tl"/></g></g></g></svg>